<?xml version="1.0" encoding="UTF-8"?>
<svg viewBox="0 0 800.99 741.93" xmlns="http://www.w3.org/2000/svg">
<polygon points="0.31 225.96 0.31 141.75 0.7 141.72 4.92 168.66 0.71 225.97" fill="#5afd39"/>
<polygon points="0.32 226.02 0.67 225.84 4.88 231.74 9.13 252.87 8.74 252.96" fill="#4afe65"/>
<polygon points="0.31 225.99 0.7 225.9 9.12 252.84 9.13 278.17 8.73 278.2" fill="#4bff71"/>
<polygon points="0.31 307.64 0.31 225.96 0.7 225.93 9.13 278.13 0.7 307.69" fill="#48fe7f"/>
<polygon points="0.31 476.9 0.31 393.54 0.7 393.49 13.35 446.61 0.69 476.98" fill="#55d89b"/>
<polygon points="4.52 168.68 4.91 168.62 17.57 202.41 0.26 226.65" fill="#56fd38"/>
<polygon points="13.16 446.02 21.82 471.99 0.17 477.19" fill="#56c6b1"/>
<polygon points="8.73 252.65 26.12 257 8.73 278.74" fill="#49ff88"/>
<polygon points="0.26 225.96 17.19 202.26 17.53 202.46 4.76 232.26" fill="#51ff4e"/>
<polygon points="0.31 476.9 0.69 476.82 30.24 543.51 0.31 561.47" fill="#58db8e"/>
<polygon points="29.78 156.06 29.78 125.93 38.63 139.21 30.16 156.15" fill="#f2f0f2"/>
<polygon points="8.76 253.07 4.52 231.89 4.87 231.72 26.32 257.46" fill="#47ff74"/>
<polygon points="8.67 164.25 42.98 168.54 17.25 202.84" fill="#e3fde1"/>
<polygon points="17.25 202.1 43.08 215.02 4.33 232.24" fill="#62fd72"/>
<polygon points="4.49 168.64 9.04 164.08 17.54 202.33 17.16 202.45" fill="#8bfe76"/>
<polygon points="38.3 138.97 51.51 143.38 29.5 156.59" fill="#f4f2f4"/>
<polygon points="0.28 307.39 51.44 353.64 0.28 394.66" fill="#53f194"/>
<polygon points="4.39 231.78 42.98 214.63 25.83 257.5" fill="#47fe7f"/>
<polygon points="25.59 257.04 42.56 214.6 55.52 231.88 25.9 257.27" fill="#3affa9"/>
<polygon points="29.66 156.02 51.4 142.98 42.7 169.06" fill="#f8f6f8"/>
<polygon points="0.23 476.76 21.73 471.6 30.18 543.41 29.8 543.51" fill="#55d996"/>
<polygon points="0.25 393.31 59.89 400.12 13.03 446.98" fill="#51d4a3"/>
<polygon points="17.05 202.45 42.81 168.09 42.81 215.33" fill="#50fb4b"/>
<polygon points="55.33 231.52 63.95 253.07 25.15 257.38" fill="#38fbae"/>
<polygon points="21.32 471.56 59.74 484.37 29.86 544.12" fill="#4ee281"/>
<polygon points="42.41 168.69 42.8 168.61 59.72 206.68 42.41 215.33" fill="#47fd47"/>
<polygon points="0 393.68 51.17 353.59 59.7 400.5" fill="#52e6a1"/>
<polygon points="42.31 214.94 59.72 206.23 55.36 232.34" fill="#4cfd80"/>
<polygon points="63.29 252.71 68.02 252.71 72.28 265.47 71.92 265.65" fill="#3afbb9"/>
<polygon points="25.73 257.31 25.75 256.92 63.77 252.69 72.52 265.82" fill="#37f8b6"/>
<polygon points="63.53 253.1 55.06 231.93 55.41 231.75 68.23 253.1" fill="#3afcb7"/>
<polygon points="25.69 256.9 72.12 265.34 72.13 265.73 8.43 278.47" fill="#47fe93"/>
<polygon points="67.57 252.62 85.21 257.03 71.98 265.85" fill="#38f8d6"/>
<polygon points="21.4 472.01 12.73 446 59.58 484.33 59.39 484.67" fill="#57bcbf"/>
<polygon points="42.3 168.49 93.58 168.49 59.4 206.95" fill="#ebfdf0"/>
<polygon points="8.77 277.99 72.05 265.34 72.19 265.71 0.18 308.07" fill="#45fe8f"/>
<polygon points="0.17 307.61 72.39 265.13 51.15 354.33" fill="#39f6bd"/>
<polygon points="59.3 206.46 93.19 168.34 97.6 177.17 59.58 206.75" fill="#8efc92"/>
<polygon points="29.8 543.34 59.36 484.23 89.32 497.06 30.11 543.59" fill="#48d99d"/>
<polygon points="12.84 446.6 59.66 399.79 59.66 484.9" fill="#5aafc5"/>
<polygon points="29.6 542.97 101.83 585.46 67.84 644.95" fill="#f9f7f9"/>
<polygon points="50.74 353.46 97.79 391.96 59.3 400.51" fill="#46ebaf"/>
<polygon points="71.98 265.37 84.69 256.89 97.41 261.13 97.38 261.52 72.12 265.73" fill="#9feffd"/>
<polygon points="88.33 496.91 97.46 496.91 105.94 509.63 105.65 509.9" fill="#44ccdb"/>
<polygon points="59.42 400.47 59.41 400.08 97.46 391.62 106.13 408.96" fill="#45c8cb"/>
<polygon points="59.39 400.46 59.49 400.08 105.91 408.51 110.38 417.46" fill="#49c7cd"/>
<polygon points="67.75 253.08 55.07 231.95 55.37 231.7 84.85 256.96 84.67 257.31" fill="#3bfcb4"/>
<polygon points="59.25 400 110.31 417.01 59.25 485.08" fill="#5b9dd8"/>
<polygon points="29.86 543.27 88.93 496.86 106.16 509.79 30.06 543.61" fill="#4adca2"/>
<polygon points="55.03 231.93 59.36 205.95 84.9 257.02 84.59 257.27" fill="#3afdb0"/>
<polygon points="84.17 257.14 122.53 240.09 122.74 240.43 97.39 261.55" fill="#39e1fd"/>
<polygon points="29.55 543.41 105.99 509.43 101.74 585.88" fill="#51e6b7"/>
<polygon points="58.99 206.12 123.07 240.29 84.63 257.37" fill="#3bf1d9"/>
<polygon points="50.99 354.15 50.98 353.76 131.27 332.64 127 371.04" fill="#3bd5da"/>
<polygon points="71.98 265.11 131.4 333.02 50.76 354.23" fill="#3dc6e7"/>
<polygon points="50.91 354.11 51.08 353.76 127.31 370.7 97.34 392.1" fill="#53afd7"/>
<polygon points="59.09 206.62 97.44 176.79 123 240.71" fill="#3afe4b"/>
<polygon points="76 21.13 122.92 21.13 97.33 76.58" fill="#f8f6f8"/>
<polygon points="59.14 484.57 109.82 416.99 110.17 417.17 89.06 497.39" fill="#57c1be"/>
<polygon points="88.67 497.31 109.79 417.06 110.18 417.15 97.52 497.31" fill="#53b2df"/>
<polygon points="97.02 496.98 135.2 488.5 135.36 488.86 105.72 510.03" fill="#45c9de"/>
<polygon points="130.84 332.88 131.24 332.9 131.24 366.67 126.56 371.34" fill="#3fc4da"/>
<polygon points="71.7 265.4 97.47 261.1 131.22 332.82 130.88 333.04" fill="#3adee4"/>
<polygon points="105.66 509.58 135.35 488.37 139.71 501.47 105.82 509.94" fill="#46c6da"/>
<polygon points="97.09 391.79 126.71 370.63 127 370.89 105.76 409.12" fill="#3ebbe8"/>
<polygon points="130.98 197.44 143.92 231.96 122.34 240.59" fill="#40e7ff"/>
<polygon points="109.78 417.08 110.17 417.05 135.51 488.84 97.11 497.37" fill="#48adea"/>
<polygon points="96.93 261.41 122.63 239.99 156.9 278.55" fill="#3bb9fd"/>
<polygon points="96.98 261.01 156.58 278.04 131.04 333.38" fill="#3ac5cf"/>
<polygon points="105.03 509.73 139.53 501.1 161.09 526.98" fill="#4bbdeb"/>
<polygon points="105.55 408.69 126.65 370.7 127.01 370.87 110.01 417.62" fill="#3ec1e6"/>
<polygon points="105.58 509.48 160.88 526.5 101.33 586.05" fill="#43d6d7"/>
<polygon points="122.24 240.21 143.78 231.59 160.69 273.88 160.38 274.11" fill="#3fc2ff"/>
<polygon points="122.46 240.41 122.75 240.12 160.8 273.95 156.29 278.46" fill="#40adff"/>
<polygon points="130.69 197.81 173.6 214.98 143.56 232.14" fill="#fffeff"/>
<polygon points="109.67 416.83 177.69 433.84 135.18 489.11" fill="#4faae8"/>
<polygon points="156.25 277.8 177.65 303.48 130.57 333.44" fill="#4f90ff"/>
<polygon points="135.09 488.57 177.42 433.54 181.79 446.65 135.38 488.84" fill="#6285f0"/>
<polygon points="126.72 370.5 182.11 404.59 109.68 417.37" fill="#42b7dc"/>
<polygon points="109.93 417.31 109.95 416.92 181.8 404.24 177.52 434.2" fill="#616eff"/>
<polygon points="126.5 370.83 131.02 366.32 181.68 404.32 181.46 404.65" fill="#40bbdb"/>
<polygon points="156.03 278.15 160.55 273.63 177.52 303.33 177.19 303.56" fill="#4a8ffd"/>
<polygon points="160.13 273.71 194.54 278.01 177.34 303.81" fill="#4c93fe"/>
<polygon points="143.41 231.76 173.43 214.61 160.56 274.64" fill="#398dfe"/>
<polygon points="164.42 0 202.98 8.57 177.27 38.56" fill="#fcfafc"/>
<polygon points="130.44 366.39 202.95 366.39 181.62 404.78" fill="#6d60ff"/>
<polygon points="130.83 366.79 130.83 332.59 202.7 366.41 202.61 366.79" fill="#46b4e0"/>
<polygon points="181.42 446.79 176.99 433.51 199.12 446.79" fill="#726ef8"/>
<polygon points="181.4 404.18 207.25 417.1 177.09 434.33" fill="#904efe"/>
<polygon points="130.62 332.93 177.44 303.13 202.99 366.99" fill="#568cff"/>
<polygon points="135.01 488.63 181.43 446.44 181.72 446.71 139.38 501.75" fill="#5282f5"/>
<polygon points="181.12 446.39 198.54 446.39 211.22 480.2 210.88 480.4" fill="#b04afd"/>
<polygon points="139.11 501.22 210.98 480.08 211.17 480.42 160.49 526.88" fill="#706af9"/>
<polygon points="181.55 446.27 211.39 480.38 138.92 501.69" fill="#558ae9"/>
<polygon points="176.95 433.95 207.15 416.7 198.52 446.89" fill="#9d48ff"/>
<polygon points="160.27 274.13 173.1 214.25 194.48 278.4" fill="#4e71ff"/>
<polygon points="198.21 446.66 198.54 446.45 215.47 463.37 211.07 480.94" fill="#a83dfe"/>
<polygon points="189.61 109.45 207 113.79 215.44 160.24 215.06 160.36" fill="#fbf9fb"/>
<polygon points="194.12 277.92 224.27 290.84 176.89 303.76" fill="#577bfe"/>
<polygon points="172.74 214.45 228.23 257.13 194.08 278.47" fill="#5764ff"/>
<polygon points="206.49 113.25 228.12 139.2 215.14 160.83" fill="#f2f0f2"/>
<polygon points="181.28 404.57 202.76 365.92 207.05 417.45" fill="#8d51ff"/>
<polygon points="211.07 479.97 232.42 509.87 159.81 526.96" fill="#8f46fe"/>
<polygon points="193.76 278.2 228.13 256.72 223.83 291.09" fill="#6a5cff"/>
<polygon points="172.8 215 185.81 206.32 228.03 256.99 227.75 257.27" fill="#477dfe"/>
<polygon points="223 291 236.5 282 236.5 291" fill="#5274f9"/>
<polygon points="227.68 257.09 228.07 257.05 236.53 282.46 223.41 291.21" fill="#656dfd"/>
<polygon points="176.92 302.91 240.89 345.55 202.51 366.87" fill="#5888ff"/>
<polygon points="176.87 303.35 223.8 290.55 240.86 346.01" fill="#528cff"/>
<polygon points="210.87 480.39 211.16 480.12 240.87 505.58 232.02 510" fill="#9853ff"/>
<polygon points="198.18 446.65 206.63 417.06 207.02 417.08 215.56 464.02" fill="#a443fd"/>
<polygon points="215.22 159.94 253.56 202.55 185.39 206.81" fill="#60a7fe"/>
<polygon points="240.37 345.39 253.34 332.42 253.34 341.47 240.57 345.73" fill="#c036e8"/>
<polygon points="223.47 290.86 223.83 290.68 253.4 332.93 240.41 345.91" fill="#9345f9"/>
<polygon points="206.58 416.91 245.08 416.91 215.14 463.97" fill="#c748e8"/>
<polygon points="227.62 256.99 240.75 252.61 236.49 282.41 236.11 282.44" fill="#6276ff"/>
<polygon points="215.07 463.32 244.71 416.76 257.63 434 215.36 463.6" fill="#c837ed"/>
<polygon points="215.09 160.41 215.36 160.11 257.59 189.67 253.22 202.77" fill="#66c4fb"/>
<polygon points="185.37 206.41 253.46 202.16 227.93 257.49" fill="#5172fe"/>
<polygon points="252.96 202.29 253.33 202.43 240.68 253.06 227.5 257.45" fill="#6b50fe"/>
<polygon points="223.28 290.6 236.43 290.6 253.33 332.83 252.98 333.02" fill="#844bfb"/>
<polygon points="206.64 417.31 202.36 365.97 245.15 417.31" fill="#c039ef"/>
<polygon points="244.56 417.23 244.84 416.95 261.87 429.72 257.33 434.26" fill="#ac5fe6"/>
<polygon points="214.51 160 261.79 164.3 257.49 190.09" fill="#f9f7f9"/>
<polygon points="236.12 38.08 253.05 4.21 261.88 8.63 236.45 38.3" fill="#fbf9fb"/>
<polygon points="236.1 290.94 236.1 282 261.67 299.05 261.5 299.41" fill="#566ffe"/>
<polygon points="235.95 290.47 261.8 299.09 253.18 333.55" fill="#9645fa"/>
<polygon points="210.81 480.34 215.17 462.91 240.68 505.43 240.38 505.69" fill="#9458fd"/>
<polygon points="252.95 332.86 261.45 298.83 270.24 307.62 253.31 333.02" fill="#9a45fb"/>
<polygon points="202.31 366.53 240.69 345.21 244.95 417.71" fill="#ca38ea"/>
<polygon points="236.15 38.04 261.52 8.43 274.58 17.13 236.39 38.34" fill="#fdfbfd"/>
<polygon points="257.22 189.51 274.84 193.91 252.81 202.72" fill="#cee7fd"/>
<polygon points="240.27 344.92 274.46 387.65 244.54 417.57" fill="#cf3ee2"/>
<polygon points="240.33 252.71 266.25 252.71 236.01 282.94" fill="#705bff"/>
<polygon points="231.85 509.64 240.68 505.23 244.92 560.26 244.52 560.32" fill="#955ffc"/>
<polygon points="252.94 332.7 278.4 332.7 278.46 333.1 252.94 341.6" fill="#ab44ee"/>
<polygon points="252.77 333.11 270.04 307.19 278.68 333.11" fill="#a945ee"/>
<polygon points="252.82 201.92 278.64 219.14 265.73 253.58" fill="#5990fd"/>
<polygon points="240.17 345.44 253.25 341.08 274.38 387.56 274.04 387.76" fill="#b043ef"/>
<polygon points="240.25 253.1 252.95 202.33 253.33 202.33 266.03 253.1" fill="#814fff"/>
<polygon points="256.98 434.04 261.53 429.49 282.72 442.21 282.55 442.57" fill="#b74feb"/>
<polygon points="269.79 307.7 270.14 307.52 282.85 324.46 278.37 333.43" fill="#ce38e1"/>
<polygon points="252.71 202.33 274.35 193.68 278.68 219.64" fill="#698bff"/>
<polygon points="257.12 189.9 261.48 163.78 274.54 194.25" fill="#7acafe"/>
<polygon points="235.98 282.41 266.02 252.37 261.73 299.57" fill="#527eff"/>
<polygon points="244.41 417.14 274.05 387.5 274.38 387.7 261.67 430.08" fill="#daa4ef"/>
<polygon points="214.98 463.37 257.66 433.49 240.59 506.06" fill="#8e5dfe"/>
<polygon points="278.08 333.11 282.56 324.15 291.52 333.11" fill="#da38dd"/>
<polygon points="260.97 429.63 291.38 425.28 282.69 442.66" fill="#b054ec"/>
<polygon points="273.91 193.5 291.34 206.57 278.27 219.63" fill="#ce93ff"/>
<polygon points="273.74 193.86 291.24 189.49 291.24 206.99" fill="#fefbfd"/>
<polygon points="265.58 252.83 278.29 218.94 287.12 223.36 265.93 253.02" fill="#8361ea"/>
<polygon points="274.16 387.06 291.32 425.7 261.28 429.99" fill="#cf44d4"/>
<polygon points="278.06 219.27 291.4 205.94 286.96 223.72" fill="#a24be7"/>
<polygon points="240.31 505.49 257.2 433.7 282.92 442.27 240.67 505.65" fill="#c137ff"/>
<polygon points="290.83 189.42 299.75 193.88 290.83 207.25" fill="#cc85fc"/>
<polygon points="252.87 341.21 278.63 332.62 274.39 387.65 274.01 387.72" fill="#9742f8"/>
<polygon points="274.01 387.72 274.32 387.49 303.96 412.89 290.97 425.88" fill="#d939e2"/>
<polygon points="273.75 387.52 295.38 383.2 304.04 413.49" fill="#e638d2"/>
<polygon points="278.23 332.55 303.96 349.7 273.94 388.29" fill="#e636cd"/>
<polygon points="303.51 349.62 303.86 349.79 295.41 383.6 273.7 387.94" fill="#c352cd"/>
<polygon points="277.74 332.7 291.13 332.7 303.83 349.63 303.56 349.91" fill="#e138d8"/>
<polygon points="240.18 505.67 282.86 441.65 278.59 514.2" fill="#a937ff"/>
<polygon points="299.42 193.64 308.27 202.49 290.58 206.91" fill="#cd84ff"/>
<polygon points="278.05 513.89 307.8 501.14 308.02 501.47 286.82 522.66" fill="#fe6bef"/>
<polygon points="278.2 513.94 282.44 441.98 303.91 459.16 278.58 514.04" fill="#de3bf7"/>
<polygon points="307.99 500.93 312.33 518.33 286.24 522.68" fill="#ffd6fb"/>
<polygon points="303.79 458.47 308.09 501.45 278 514.35" fill="#fc3b78"/>
<polygon points="286.64 522.46 286.98 522.25 316.56 560.29 307.81 569.04" fill="#dcdadc"/>
<polygon points="286.58 223.6 290.92 206.23 316.97 227.94" fill="#c241c6"/>
<polygon points="290.6 206.49 308.01 202.14 316.71 228.24" fill="#ce3ac5"/>
<polygon points="282.36 442.43 291.06 425.04 304.11 459.83" fill="#d447f5"/>
<polygon points="278.04 33.64 320.82 46.47 299.43 80.69" fill="#dfdddf"/>
<polygon points="307.53 201.98 324.99 210.71 316.26 228.16" fill="#cc3aca"/>
<polygon points="286.46 522.24 312.26 517.93 316.56 560.94" fill="#dcdadc"/>
<polygon points="303.51 413.1 295.05 383.49 295.41 383.31 316.69 413.1" fill="#e137cc"/>
<polygon points="261.35 299.29 265.57 252.89 265.97 252.89 270.22 308.16" fill="#6270fe"/>
<polygon points="290.72 425.26 329.33 433.84 303.59 459.58" fill="#d338e2"/>
<polygon points="329.25 433.35 324.89 455.18 303.06 459.55" fill="#ee36a9"/>
<polygon points="290.64 425.65 303.65 412.63 329.06 433.8 328.89 434.15" fill="#d838e9"/>
<polygon points="303.11 412.7 316.41 412.7 329.1 433.85 328.8 434.11" fill="#d736e2"/>
<polygon points="265.61 252.79 286.73 223.22 316.96 227.53 265.86 253.08" fill="#c138d5"/>
<polygon points="320.41 698.67 333.39 720.3 311.76 741.93" fill="#faf8fa"/>
<polygon points="315.92 560.28 329.02 551.55 337.75 573.38" fill="#fbf9fb"/>
<polygon points="307.68 501.35 303.45 459.06 325.03 454.74 308.06 501.39" fill="#f935ce"/>
<polygon points="299.2 193.99 320.34 160.17 320.7 160.33 307.97 202.75" fill="#bc69fc"/>
<polygon points="307.34 202.33 349.92 189.55 350.11 189.9 324.75 211.04" fill="#faf7f7"/>
<polygon points="290.58 332.63 345.8 341.13 345.81 341.52 303.58 349.97" fill="#d937db"/>
<polygon points="316 412.8 350.46 399.88 328.93 434.34" fill="#df3ab4"/>
<polygon points="295 383.57 303.56 349.34 350.63 400.68" fill="#e436c0"/>
<polygon points="294.74 383.06 350.6 400.25 316.22 413.14" fill="#e438c6"/>
<polygon points="265.56 252.79 316.8 227.16 269.83 308.3" fill="#a452d2"/>
<polygon points="303.28 349.62 345.95 341.08 350.22 400.83" fill="#e638b8"/>
<polygon points="315.99 227.81 324.63 210.53 366.91 231.67 366.81 232.05" fill="#df48b6"/>
<polygon points="324.59 210.65 349.98 189.49 367.3 202.49 324.76 211" fill="#fbf9fb"/>
<polygon points="307.59 501.52 324.65 454.61 363.04 501.52" fill="#ff39c6"/>
<polygon points="299.19 80.15 362.55 59.03 362.74 59.38 307.79 101.64" fill="#f9f7f9"/>
<polygon points="349.93 399.98 371.43 417.17 328.44 434.37" fill="#f13b65"/>
<polygon points="328.78 433.7 371.09 446.4 371.07 446.79 324.46 455.26" fill="#ef39a1"/>
<polygon points="324.11 210.72 367.02 202.13 367.02 232.18" fill="#fd3b6f"/>
<polygon points="349.38 189.54 375.62 189.54 366.87 202.66" fill="#fe3860"/>
<polygon points="328.32 433.98 371.24 416.82 371.24 446.86" fill="#f23973"/>
<polygon points="349.78 400.29 345.55 341.02 367.07 349.63 350.17 400.34" fill="#f43864"/>
<polygon points="269.74 307.65 316.12 227.54 316.49 227.71 282.68 324.9" fill="#e038b8"/>
<polygon points="324.35 454.87 371.27 446.34 362.74 501.8" fill="#fc43a7"/>
<polygon points="290.94 333.09 281.94 324.1 345.82 341.13 345.74 341.52" fill="#d938d7"/>
<polygon points="366.37 231.26 383.87 244.38 383.87 273.96 383.48 274.03" fill="#fc3684"/>
<polygon points="315.56 227.38 366.96 231.66 384.1 274.5" fill="#f34490"/>
<polygon points="316.19 227.33 384.06 273.98 282.26 324.88" fill="#f64493"/>
<polygon points="282.05 324.54 384.16 273.49 345.87 341.56" fill="#e739ac"/>
<polygon points="366.78 349.25 388.17 387.75 349.67 400.59" fill="#ff3f51"/>
<polygon points="349.57 400.2 388.31 387.28 371.09 417.42" fill="#ff3c60"/>
<polygon points="366.22 231.65 396.78 231.65 383.68 244.75" fill="#fd397c"/>
<polygon points="370.88 446.27 400.83 463.39 362.32 501.9" fill="#ff437e"/>
<polygon points="370.86 417.01 387.8 387.38 396.63 391.8 371.18 417.26" fill="#ff3a5f"/>
<polygon points="366.62 232.05 366.62 201.9 396.78 232.05" fill="#ff3877"/>
<polygon points="375.24 189.95 375.18 189.56 400.61 181.08 405.04 189.95" fill="#fbcfd7"/>
<polygon points="345.49 341.43 383.49 273.86 383.86 274 366.97 350.02" fill="#f3428a"/>
<polygon points="375.01 105.1 413.49 135.03 379.28 156.4" fill="#f9f7f9"/>
<polygon points="375.14 189.54 404.72 189.54 404.78 189.94 366.33 202.75" fill="#fd3a61"/>
<polygon points="366.45 202.29 404.98 189.45 396.42 232.26" fill="#fe3a71"/>
<polygon points="396.1 231.81 404.6 189.34 417.61 202.36 396.46 231.97" fill="#fd4588"/>
<polygon points="379.15 156.01 413.47 134.57 400.6 181.75" fill="#fddeec"/>
<polygon points="370.58 417.28 396.29 391.58 430.56 421.57" fill="#ff494f"/>
<polygon points="370.65 416.89 430.35 421.15 400.5 463.79" fill="#ff3a5f"/>
<polygon points="370.83 446.7 370.83 416.43 400.68 463.32 400.41 463.6" fill="#ff3975"/>
<polygon points="417.35 202.03 434.54 227.8 395.87 232.1" fill="#fb3885"/>
<polygon points="383.46 273.96 383.46 244.4 396.15 231.71 396.49 231.91 383.86 274.01" fill="#fd3881"/>
<polygon points="362.2 501.45 400.51 463.14 451.59 518.48" fill="#fd8cb1"/>
<polygon points="383.53 273.64 451.48 316.1 366.55 350.07" fill="#fa447e"/>
<polygon points="383.53 273.81 434.18 227.38 451.41 240.31 383.75 274.13" fill="#f2398e"/>
<polygon points="400.36 463.57 400.57 463.24 451.23 480.13 451.23 518.68" fill="#fdd9de"/>
<polygon points="396.14 231.67 434.78 227.37 383.26 274.6" fill="#f8398f"/>
<polygon points="387.73 387.79 366.65 349.84 366.99 349.63 396.46 391.74 396.21 392.03" fill="#f84365"/>
<polygon points="366.51 349.65 451.6 315.62 396.29 392.19" fill="#f34677"/>
<polygon points="400.19 463.54 430.04 420.89 451.36 480.59" fill="#fd4c4e"/>
<polygon points="429.79 421.39 430.12 421.18 468.14 459.2 450.97 480.68" fill="#ff5a36"/>
<polygon points="416.93 202.11 472.79 210.7 434.12 227.89" fill="#ff3877"/>
<polygon points="433.8 227.6 472.68 210.32 451.08 240.56" fill="#ff387a"/>
<polygon points="450.83 518.37 450.83 480.27 451.23 480.23 459.7 518.37" fill="#ff6a39"/>
<polygon points="383.26 273.94 451.23 239.95 451.23 316.42" fill="#fc3b79"/>
<polygon points="450.75 479.9 476.59 492.83 459.36 518.67" fill="#fe6938"/>
<polygon points="429.58 421.2 472.31 412.65 468.04 459.66" fill="#ff513f"/>
<polygon points="404.5 189.81 412.94 134.98 413.34 135 417.58 202.89" fill="#fdeaed"/>
<polygon points="400.29 181.35 412.95 134.96 413.34 135.04 404.82 190.4" fill="#fffcfe"/>
<polygon points="395.81 391.69 485.46 383.16 429.97 421.58" fill="#ff463a"/>
<polygon points="429.87 421.16 485.18 382.87 472.23 413.08 430.02 421.52" fill="#fc4f40"/>
<polygon points="451.06 315.68 485.03 383.6 395.88 392.09" fill="#fd4f59"/>
<polygon points="450.72 480.34 467.97 458.78 476.6 493.28" fill="#fe723b"/>
<polygon points="484.77 382.81 489.15 400.35 471.61 413.51" fill="#fe623a"/>
<polygon points="450.91 703.11 489.45 728.8 442.34 737.37" fill="#fcfafc"/>
<polygon points="476.26 492.59 493.53 509.85 459 518.49" fill="#ff7c3a"/>
<polygon points="450.57 315.57 489.14 337 484.85 384.15" fill="#fe4c5b"/>
<polygon points="450.69 240.4 472.13 210.4 489.27 248.97" fill="#ff3a76"/>
<polygon points="471.97 412.74 488.95 400.01 497.76 408.83 472.12 413.1" fill="#ff6c3a"/>
<polygon points="417.16 202.55 412.9 134.38 472.55 211.07" fill="#fe427d"/>
<polygon points="412.54 134.57 501.87 168.6 472.1 211.13" fill="#fc3c76"/>
<polygon points="450.83 240.02 489.24 248.56 450.83 316.82" fill="#ff3969"/>
<polygon points="412.99 134.87 480.5 63.14 497.67 80.31 413.25 135.18" fill="#f1eff1"/>
<polygon points="471.71 50.6 505.77 50.6 505.86 50.98 480.44 63.69" fill="#f0eef0"/>
<polygon points="450.36 315.91 506.17 311.62 488.99 337.38" fill="#fe4e48"/>
<polygon points="471.93 412.43 506.15 450.92 467.65 459.48" fill="#ff713a"/>
<polygon points="467.57 458.82 506.22 480.3 476.16 493.18" fill="#ff793e"/>
<polygon points="459.18 518.03 493.44 509.46 476.31 560.85" fill="#faf2f0"/>
<polygon points="475.87 492.76 510.44 488.43 493.16 510.05" fill="#fd7437"/>
<polygon points="476.22 492.72 505.87 480.01 510.29 488.86 476.32 493.1" fill="#ff8038"/>
<polygon points="480.17 63.38 506.09 50.42 497.45 80.65" fill="#f5f3f5"/>
<polygon points="467.32 459.14 505.97 450.55 505.97 480.61" fill="#fd8235"/>
<polygon points="471.7 412.77 497.51 408.46 506.11 451.48" fill="#ff5f3a"/>
<polygon points="450.65 703.41 506.11 673.55 489.04 729.01" fill="#e4e2e4"/>
<polygon points="489 248.17 506.02 312.03 450.68 316.29" fill="#ff474c"/>
<polygon points="514 257.08 514.39 257.07 522.83 295.07 505.48 312.42" fill="#ff593a"/>
<polygon points="488.64 248.39 514.42 256.98 505.97 311.88 505.58 311.9" fill="#ff463b"/>
<polygon points="505.57 450.57 539.97 454.87 505.57 480.67" fill="#fe9d39"/>
<polygon points="488.75 400.38 484.52 383.48 484.9 383.34 497.53 408.6 497.21 408.83" fill="#ff5f39"/>
<polygon points="488.57 337.29 505.72 311.56 544.31 341.58" fill="#fc5943"/>
<polygon points="488.75 336.9 544.23 341.17 484.48 383.85" fill="#fe4e48"/>
<polygon points="505.52 480.21 539.33 454.85 539.6 455.14 509.94 489.05" fill="#fd993b"/>
<polygon points="526.78 12.58 552.47 38.27 505.37 51.12" fill="#efedef"/>
<polygon points="505.47 311.87 522.67 294.66 543.85 341.24 543.54 341.48" fill="#ff5c38"/>
<polygon points="505.6 450.98 497.01 408.02 539.97 455.27" fill="#fd6d38"/>
<polygon points="488.78 248.85 471.9 210.88 472.24 210.66 514.86 257.55" fill="#fe3860"/>
<polygon points="492.84 509.8 509.98 488.37 552.25 543.31 551.99 543.6" fill="#ff713e"/>
<polygon points="471.83 210.81 501.69 168.16 514.48 257.73" fill="#fd3853"/>
<polygon points="501.41 168.83 501.65 168.52 564.94 202.27 560.65 232.29" fill="#fafbed"/>
<polygon points="501.27 168.09 560.83 231.9 514.03 257.43" fill="#fd843a"/>
<polygon points="484.46 383.37 543.55 341.16 543.83 341.44 497.32 409.08" fill="#ff6637"/>
<polygon points="513.93 256.83 578 273.92 522.47 295.28" fill="#ff5f39"/>
<polygon points="513.66 257.18 560.61 231.57 577.68 274.25" fill="#fe5d38"/>
<polygon points="497.18 408.58 543.61 341.05 577.74 362.38 497.45 408.87" fill="#ff613a"/>
<polygon points="509.58 488.85 539.43 454.73 590.62 497.38" fill="#ff8539"/>
<polygon points="509.54 488.44 590.37 496.95 552.08 543.75" fill="#ff743a"/>
<polygon points="564.55 202.27 573.03 189.54 582.16 189.54 564.84 202.54" fill="#ffd060"/>
<polygon points="509.68 606.68 552.23 542.85 560.74 627.95" fill="#f9f7f9"/>
<polygon points="538.84 454.76 590.18 459.04 590.18 497.54" fill="#faa037"/>
<polygon points="551.66 543.63 590.32 496.39 581.73 543.63" fill="#ff9c38"/>
<polygon points="522.34 294.9 577.76 273.58 543.66 341.79" fill="#ff6a37"/>
<polygon points="581.36 543.39 589.87 496.59 598.63 509.73 581.74 543.52" fill="#ff8c3a"/>
<polygon points="497.03 408.64 577.76 361.91 539.52 455.38" fill="#fd8037"/>
<polygon points="598.48 509.13 602.84 530.9 581.07 543.96" fill="#fcc13a"/>
<polygon points="560.28 232.05 564.57 202.01 603.2 232.05" fill="#ff8b3c"/>
<polygon points="589.78 458.74 607.09 476.05 589.78 497.69" fill="#ffbf3a"/>
<polygon points="560.21 231.65 602.97 231.65 577.31 274.4" fill="#ff9c3b"/>
<polygon points="564.39 202.38 581.63 189.44 602.79 231.76 602.49 232.01" fill="#ffcd39"/>
<polygon points="539.27 454.93 577.28 362.02 611.33 396.08 539.58 455.16" fill="#fd7e38"/>
<polygon points="581.38 189.84 581.71 189.61 611.31 223.44 602.56 232.19" fill="#fecf38"/>
<polygon points="538.95 455.17 611.44 395.46 590.12 459.43" fill="#ff7f3c"/>
<polygon points="598.11 509.31 624.18 526.69 602.46 531.03" fill="#ffac39"/>
<polygon points="589.5 459.02 624.15 459.02 606.82 476.35" fill="#ffc038"/>
<polygon points="576.94 362.25 619.71 353.7 611.16 396.47" fill="#ff9639"/>
<polygon points="577.28 362.19 615.3 349.52 619.86 354.08 577.39 362.57" fill="#ffa03d"/>
<polygon points="615.07 290.7 615.44 290.8 615.44 349.89 576.94 362.73" fill="#fbab39"/>
<polygon points="543.3 341.33 615.13 290.63 615.42 290.89 577.42 362.66" fill="#fe9938"/>
<polygon points="543.49 341.24 577.25 273.7 615.65 290.76 543.78 341.49" fill="#f0a96c"/>
<polygon points="589.73 497.1 606.67 475.94 607.02 476.11 598.49 510.23" fill="#fdb138"/>
<polygon points="619.37 354.16 615.1 349.89 615.33 349.57 623.75 353.78 623.66 354.16" fill="#fad037"/>
<polygon points="577.06 274.05 602.7 231.31 615.52 291.14" fill="#fb9d34"/>
<polygon points="610.98 395.59 636.58 438.26 589.65 459.59" fill="#feaa37"/>
<polygon points="589.98 459.42 589.9 459.04 636.8 437.72 623.78 459.42" fill="#ffc536"/>
<polygon points="602.18 232 611 223.19 636.39 235.88 636.27 236.26" fill="#ffc139"/>
<polygon points="610.84 396.02 619.29 353.76 623.93 353.76 611.23 396.12" fill="#fe9139"/>
<polygon points="614.77 349.73 644.64 336.93 644.84 337.27 623.69 354.19" fill="#ffd63b"/>
<polygon points="602.36 231.62 636.57 235.89 615.19 291.5" fill="#f3b94d"/>
<polygon points="615.06 290.73 636.24 235.65 649.19 252.92 615.39 290.93" fill="#febb37"/>
<polygon points="636.23 437.88 649.33 446.61 623.14 459.71" fill="#ffd639"/>
<polygon points="615.04 290.11 645.01 337.21 615.04 350.05" fill="#ffd13a"/>
<polygon points="581.23 189.67 640.93 164.08 611.08 223.79" fill="#fee671"/>
<polygon points="598.17 509.83 606.8 475.35 624.04 527.08" fill="#ffb438"/>
<polygon points="623.54 353.8 644.73 336.85 653.52 345.63 623.72 354.15" fill="#ffdd3c"/>
<polygon points="610.86 223.34 640.51 164.04 653.39 189.8 611.16 223.59" fill="#ffed38"/>
<polygon points="639.99 163.9 653.34 172.8 653.34 189.75 652.96 189.84" fill="#fff861"/>
<polygon points="623.52 526.79 606.63 476.13 607.01 475.98 628.18 526.79" fill="#ffbb3d"/>
<polygon points="623.18 526.39 627.97 526.39 657.5 560.14 657.21 560.41" fill="#fea43a"/>
<polygon points="627.73 526.72 628.02 526.45 657.55 555.98 657.55 560.8" fill="#fdcb3d"/>
<polygon points="602.03 530.71 623.73 526.37 657.49 560.13 657.25 560.45" fill="#fbce3b"/>
<polygon points="627.25 526.39 636.38 526.39 657.49 547.5 657.23 547.8" fill="#fca739"/>
<polygon points="627.73 526.73 627.99 526.43 657.55 547.54 657.55 556.54" fill="#ffcf40"/>
<polygon points="636.15 526.73 636.36 526.4 649.07 530.63 657.53 547.55 657.21 547.78" fill="#fecd3b"/>
<polygon points="610.77 396.26 623.59 353.5 653.52 396.26" fill="#fe9739"/>
<polygon points="610.68 395.86 653.44 395.86 636.33 438.62" fill="#ffbc38"/>
<polygon points="610.66 223.47 653.57 189.14 636.41 236.34" fill="#ffdf39"/>
<polygon points="652.94 172.24 661.85 185.61 652.94 190.07" fill="#fffdff"/>
<polygon points="653.14 189.95 653.05 189.57 661.76 185.21 661.76 189.95" fill="#fef760"/>
<polygon points="614.86 290.56 661.85 294.83 644.76 337.55" fill="#ffd739"/>
<polygon points="614.83 290.96 649.02 252.5 661.84 295.24" fill="#ffb839"/>
<polygon points="627.74 526.79 606.64 476.14 607 475.96 636.64 526.79" fill="#ffaa36"/>
<polygon points="635.77 526.63 669.89 509.57 670.12 509.89 648.98 531.03" fill="#fecf3c"/>
<polygon points="648.87 446.79 636.18 438.33 636.37 437.98 657.42 446.4 657.35 446.79" fill="#ffe839"/>
<polygon points="623.34 353.84 653.34 345.27 653.34 396.7" fill="#fea337"/>
<polygon points="653.06 189.38 674.51 210.83 635.9 236.56" fill="#f9ed38"/>
<polygon points="652.66 189.54 661.67 189.54 674.36 210.69 674.05 210.94" fill="#fef33a"/>
<polygon points="623.34 458.57 670.31 509.81 636.15 526.89" fill="#ffcb3a"/>
<polygon points="606.57 476.03 623.79 458.81 636.49 526.55 636.12 526.69" fill="#ffc139"/>
<polygon points="652.94 396.06 652.94 345.28 670.25 349.61 653.33 396.13" fill="#ffd03b"/>
<polygon points="636.04 438.28 652.95 395.99 653.34 396.05 657.58 446.89" fill="#feeb36"/>
<polygon points="636.01 236.01 674.08 210.63 674.36 210.9 648.95 253.26" fill="#ffd437"/>
<polygon points="652.85 396.26 669.79 349.68 670.18 349.75 670.18 396.26" fill="#f1e0af"/>
<polygon points="623.34 459.16 649.05 446.31 670.17 509.68 669.83 509.88" fill="#ffd238"/>
<polygon points="657.21 547.6 686.91 551.84 686.94 552.23 657.34 560.65" fill="#fdf3d3"/>
<polygon points="657.15 446.61 652.92 395.86 670.24 395.86 657.54 446.64" fill="#fed638"/>
<polygon points="648.65 446.39 657.51 446.39 670.18 509.71 669.79 509.81" fill="#ffe339"/>
<polygon points="652.85 172.84 690.94 151.68 691.18 151.98 661.54 185.86" fill="#fff54d"/>
<polygon points="657.08 547.8 669.97 509.16 687.14 552.1" fill="#fdd040"/>
<polygon points="653.04 345.72 644.58 337.26 644.81 336.94 670.07 349.57 669.93 349.94" fill="#ffd53a"/>
<polygon points="644.46 337.21 661.65 294.25 670.24 350.1" fill="#fec436"/>
<polygon points="648.69 530.76 669.84 509.6 670.17 509.81 657.39 548.16" fill="#fdce3b"/>
<polygon points="674.08 211 661.39 189.85 661.68 189.58 691.66 211" fill="#fef85d"/>
<polygon points="669.64 509.42 708.2 522.27 686.77 552.26" fill="#fffaed"/>
<polygon points="669.86 395.74 708.27 421.35 657.05 446.96" fill="#ffd238"/>
<polygon points="661.36 189.85 661.36 185.1 691.16 210.65 690.92 210.96" fill="#fff43b"/>
<polygon points="669.37 509.75 716.6 492.58 708.01 522.63" fill="#fde93b"/>
<polygon points="657.05 446.1 716.7 492.97 669.83 510.01" fill="#fee53a"/>
<polygon points="686.49 551.97 707.71 522.26 708.07 522.4 703.84 556.31" fill="#fef142"/>
<polygon points="661.28 185.56 691.23 151.32 691.23 211.23" fill="#fff461"/>
<polygon points="648.76 252.8 674.08 210.6 691.52 210.6 649.07 253.05" fill="#fefcd0"/>
<polygon points="707.74 521.88 725.02 543.48 703.42 556.44" fill="#feea4e"/>
<polygon points="669.78 349.55 716.78 349.55 669.78 396.54" fill="#fddd37"/>
<polygon points="648.63 252.6 729.66 278.19 661.42 295.25" fill="#ffc939"/>
<polygon points="669.81 349.94 661.27 294.44 716.78 349.94" fill="#fdda39"/>
<polygon points="648.51 253.04 691.05 210.5 733.6 265.81" fill="#ffe13b"/>
<polygon points="648.87 253.1 648.96 252.71 733.4 265.37 729.06 278.42" fill="#ffc338"/>
<polygon points="656.98 446.55 708.04 421.02 716.55 493.36" fill="#feec37"/>
<polygon points="690.54 210.48 729.11 219.06 733.4 266.2" fill="#fff739"/>
<polygon points="716.15 349.31 741.82 374.99 707.59 422.06" fill="#fcf43a"/>
<polygon points="703.28 556.06 724.82 543.14 737.74 577.6" fill="#ffed5e"/>
<polygon points="661.17 294.9 729.18 277.9 716.43 350.16" fill="#fedb3b"/>
<polygon points="669.67 396.09 716.56 349.2 708.04 421.67" fill="#fde939"/>
<polygon points="728.73 219.24 729.1 219.12 746.01 248.71 732.99 266.07" fill="#fff739"/>
<polygon points="741.4 374.89 741.76 375.05 733.31 417.29 707.43 421.6" fill="#fff039"/>
<polygon points="707.72 522.5 707.97 522.2 742.13 539.28 724.64 543.66" fill="#feeb3d"/>
<polygon points="707.62 420.82 750.27 459.21 716.15 493.34" fill="#ffea38"/>
<polygon points="707.43 421.2 733.27 416.89 750.17 459.15 749.85 459.37" fill="#fdf239"/>
<polygon points="715.67 349.4 754.54 358.04 741.58 375.31" fill="#fef839"/>
<polygon points="728.83 277.6 754.46 320.32 716.01 350.22" fill="#fef638"/>
<polygon points="724.45 543.29 741.79 538.96 737.55 577.14 737.16 577.18" fill="#feeb57"/>
<polygon points="690.83 210.96 690.83 151.09 729.32 219.51" fill="#fcfc3d"/>
<polygon points="754.26 357.74 758.66 370.94 741.06 375.34" fill="#fff039"/>
<polygon points="715.91 492.62 758.69 501.18 741.58 539.67" fill="#fefd38"/>
<polygon points="690.86 151.95 691.16 151.69 754.53 202.39 728.86 219.5" fill="#fdfd3e"/>
<polygon points="707.64 522.48 716.24 492.38 742.04 539.68" fill="#fefa38"/>
<polygon points="745.73 248.41 763.12 261.45 732.69 265.8" fill="#fff83a"/>
<polygon points="745.17 248.49 750.06 248.49 762.75 261.18 762.49 261.49" fill="#fff739"/>
<polygon points="715.89 493.03 750.1 458.81 758.66 501.58" fill="#fffe39"/>
<polygon points="715.84 349.85 754.39 319.86 754.39 358.42" fill="#fdf038"/>
<polygon points="732.79 416.77 767.11 429.64 749.95 459.68" fill="#ffe439"/>
<polygon points="741.44 374.6 767.16 400.33 732.86 417.48" fill="#fff039"/>
<polygon points="745.65 248.89 728.75 219.32 729.09 219.1 750.37 248.89" fill="#fff739"/>
<polygon points="728.54 219.02 771.42 219.02 749.98 249.04" fill="#fff53a"/>
<polygon points="728.27 219.42 754.22 202.12 771.52 219.42" fill="#fef740"/>
<polygon points="728.49 277.83 771.33 290.68 754.2 320.67" fill="#fff135"/>
<polygon points="728.39 278.21 762.74 261.04 771.33 291.1" fill="#fef33a"/>
<polygon points="732.64 417.14 767.02 399.95 767.02 430.03" fill="#fdfe38"/>
<polygon points="741.17 374.9 758.54 370.56 767.23 400.96" fill="#fff039"/>
<polygon points="732.99 265.36 762.58 261.13 762.7 261.5 728.59 278.56" fill="#fef83b"/>
<polygon points="766.62 429.75 766.62 399.61 775.47 412.89 767 429.83" fill="#fef63a"/>
<polygon points="754.05 202.52 754.26 202.19 779.82 210.71 771.03 219.5" fill="#fff83a"/>
<polygon points="758.12 370.54 779.75 374.86 766.77 400.82" fill="#fdf239"/>
<polygon points="749.81 459.12 766.74 429.48 775.58 433.9 750.12 459.36" fill="#ffe239"/>
<polygon points="754.13 202.57 754.22 202.18 784.09 206.45 779.51 211.03" fill="#fff739"/>
<polygon points="741.39 538.96 784.18 551.8 737.11 577.47" fill="#fdf7ba"/>
<polygon points="753.99 319.93 784.03 337.1 753.99 358.56" fill="#f6fe38"/>
<polygon points="766.55 429.83 775.06 412.81 775.44 412.9 775.44 434.28" fill="#feea3c"/>
<polygon points="758.25 370.97 753.82 357.68 779.57 374.84 779.41 375.2" fill="#fdf038"/>
<polygon points="770.99 290.47 792.49 311.97 753.79 320.56" fill="#fff739"/>
<polygon points="753.64 320.19 792.39 311.58 783.78 337.41" fill="#f5f738"/>
<polygon points="762.36 261.16 788.23 256.85 770.98 291.35" fill="#fff43b"/>
<polygon points="770.96 218.56 788.16 257.27 762.36 261.57" fill="#fff739"/>
<polygon points="741.28 539.35 758.39 500.86 784.05 552.17" fill="#fefd38"/>
<polygon points="753.84 358.17 783.91 336.69 779.62 375.36" fill="#f7ff39"/>
<polygon points="749.72 248.71 770.87 219.1 771.23 219.26 762.74 261.73" fill="#fff739"/>
<polygon points="783.48 337.05 791.93 311.69 800.95 308.98 783.84 337.22" fill="#f9fe39"/>
<polygon points="770.89 290.94 771.14 290.63 800.99 309.39 792.03 312.08" fill="#fef73e"/>
<polygon points="770.77 290.87 787.94 256.54 800.82 309.76" fill="#fff93a"/>
<polygon points="779.39 374.69 800.94 393.65 766.46 400.55" fill="#f9f739"/>
<polygon points="766.49 400.13 800.47 393.34 800.63 393.69 775.2 413.19" fill="#fff23a"/>
<polygon points="775.04 412.81 800.38 393.38 800.68 393.64 775.04 434.65" fill="#fef33a"/>
<polygon points="783.45 337.09 800.71 308.61 800.71 393.54 800.32 393.59" fill="#f6fe38"/>
<polygon points="779.24 375.09 783.47 337.09 783.86 337.06 800.9 394.15" fill="#f6ff39"/>
<polygon points="749.62 459.3 775.28 433.63 800.96 477.27" fill="#ffe63a"/>
<polygon points="749.72 458.92 800.98 476.86 758.26 501.64" fill="#fdf239"/>
<polygon points="783.44 551.95 800.31 476.86 800.71 476.9 800.71 561.45" fill="#fff23a"/>
<polygon points="758.14 501.25 800.8 476.5 783.74 552.44" fill="#fff23a"/>
<polygon points="775.01 433.95 800.71 392.84 800.71 477.64" fill="#ffe43a"/>
<polygon points="770.69 218.94 800.78 225.81 787.88 257.63" fill="#fff739"/>
<polygon points="770.64 219.33 779.43 210.54 800.62 225.79 800.46 226.15" fill="#fff739"/>
<polygon points="779.15 210.82 783.67 206.29 800.66 225.82 800.39 226.12" fill="#fff739"/>
<polygon points="783.45 206.64 800.31 141.69 800.71 141.75 800.71 226.49" fill="#fefb73"/>
<polygon points="787.67 257.1 800.32 225.88 800.71 225.96 800.71 309.32 800.31 309.37" fill="#fbfb76"/>
</svg>
