<?xml version="1.0" encoding="UTF-8"?>
<svg viewBox="0 0 800.49 728.89" xmlns="http://www.w3.org/2000/svg">
<polygon points="0.15 213.22 0.15 129 0.35 128.99 4.56 155.94 0.35 213.22" fill="#5afd39"/>
<polygon points="0.25 129 0.25 213.22 4.46 155.95" fill="#5afd39"/>
<polygon points="0.16 213.25 0.34 213.16 4.55 219.05 8.77 240.15 8.58 240.19" fill="#4afe65"/>
<polygon points="4.46 219.11 0.25 213.22 8.68 240.16" fill="#4afe65"/>
<polygon points="0.15 213.23 0.35 213.19 8.77 240.13 8.78 265.43 8.58 265.44" fill="#4bff71"/>
<polygon points="0.25 213.22 8.68 265.43 8.68 240.16" fill="#4bff71"/>
<polygon points="0.15 294.9 0.15 213.22 0.35 213.2 8.77 265.41 0.35 294.93" fill="#48fe7f"/>
<polygon points="0.25 213.22 0.25 294.9 8.68 265.43" fill="#48fe7f"/>
<polygon points="0.15 464.16 0.15 380.8 0.35 380.77 12.98 433.82 0.35 464.2" fill="#55d89b"/>
<polygon points="0.25 380.8 0.25 464.16 12.89 433.85" fill="#55d89b"/>
<polygon points="4.37 155.94 4.56 155.92 17.19 189.6 0.13 213.56" fill="#56fd38"/>
<polygon points="4.46 155.95 0.25 213.22 17.09 189.64" fill="#56fd38"/>
<polygon points="12.9 433.56 21.44 459.18 0.09 464.31" fill="#56c6b1"/>
<polygon points="12.89 433.85 0.25 464.16 21.31 459.11" fill="#56c6b1"/>
<polygon points="8.57 240.04 25.69 244.31 8.57 265.71" fill="#49ff88"/>
<polygon points="8.68 240.16 8.68 265.43 25.52 244.37" fill="#49ff88"/>
<polygon points="0.13 213.22 17.01 189.58 17.19 189.68 4.49 219.31" fill="#51ff4e"/>
<polygon points="0.25 213.22 4.46 219.11 17.09 189.64" fill="#51ff4e"/>
<polygon points="0.15 464.16 0.34 464.12 29.86 530.73 0.15 548.55" fill="#58db8e"/>
<polygon points="0.25 464.16 0.25 548.37 29.73 530.69" fill="#58db8e"/>
<polygon points="29.63 143.32 29.63 113.52 38.26 126.47 29.82 143.37" fill="#f2f0f2"/>
<polygon points="29.73 113.85 29.73 143.32 38.15 126.48" fill="#f2f0f2"/>
<polygon points="8.59 240.25 4.37 219.13 4.54 219.05 25.79 244.54" fill="#47ff74"/>
<polygon points="4.46 219.11 8.68 240.16 25.52 244.37" fill="#47ff74"/>
<polygon points="8.55 151.63 42.54 155.88 17.05 189.87" fill="#e3fde1"/>
<polygon points="8.68 151.74 17.09 189.64 42.36 155.95" fill="#e3fde1"/>
<polygon points="17.05 189.5 42.59 202.27 4.27 219.31" fill="#62fd72"/>
<polygon points="17.09 189.64 4.46 219.11 42.36 202.27" fill="#62fd72"/>
<polygon points="4.35 155.93 8.73 151.54 17.19 189.62 17 189.67" fill="#8bfe76"/>
<polygon points="8.68 151.74 4.46 155.95 17.09 189.64" fill="#8bfe76"/>
<polygon points="38.1 126.36 51.02 130.66 29.48 143.58" fill="#f4f2f4"/>
<polygon points="38.15 126.48 29.73 143.32 50.78 130.69" fill="#f4f2f4"/>
<polygon points="0.15 296.36 50.94 341.22 0.15 381" fill="#53f194"/>
<polygon points="0.25 296.58 0.25 380.8 50.78 341.22" fill="#53f194"/>
<polygon points="4.3 219.07 42.54 202.08 25.55 244.57" fill="#47fe7f"/>
<polygon points="4.46 219.11 25.52 244.37 42.36 202.27" fill="#47fe7f"/>
<polygon points="25.42 244.34 42.33 202.07 55.13 219.13 25.58 244.45" fill="#3affa9"/>
<polygon points="42.36 202.27 25.52 244.37 54.99 219.11" fill="#3affa9"/>
<polygon points="29.57 143.3 50.96 130.47 42.4 156.14" fill="#f8f6f8"/>
<polygon points="29.73 143.32 42.36 155.95 50.78 130.69" fill="#f8f6f8"/>
<polygon points="0.11 464.09 21.39 458.99 29.83 530.68 29.64 530.73" fill="#55d996"/>
<polygon points="21.31 459.11 0.25 464.16 29.73 530.69" fill="#55d996"/>
<polygon points="0.12 380.68 59.42 387.46 12.83 434.05" fill="#51d4a3"/>
<polygon points="0.25 380.8 12.89 433.85 59.2 387.53" fill="#51d4a3"/>
<polygon points="16.94 189.67 42.46 155.65 42.46 202.43" fill="#50fb4b"/>
<polygon points="17.09 189.64 42.36 202.27 42.36 155.95" fill="#50fb4b"/>
<polygon points="55.03 218.94 63.55 240.25 25.21 244.51" fill="#38fbae"/>
<polygon points="54.99 219.11 25.52 244.37 63.41 240.16" fill="#38fbae"/>
<polygon points="21.19 458.97 59.34 471.69 29.67 531.03" fill="#4ee281"/>
<polygon points="21.31 459.11 29.73 530.69 59.2 471.74" fill="#4ee281"/>
<polygon points="42.26 155.95 42.45 155.91 59.33 193.9 42.26 202.43" fill="#47fd47"/>
<polygon points="42.36 155.95 42.36 202.27 59.2 193.85" fill="#47fd47"/>
<polygon points="0 380.87 50.85 341.04 59.32 387.65" fill="#52e6a1"/>
<polygon points="50.78 341.22 0.25 380.8 59.2 387.53" fill="#52e6a1"/>
<polygon points="42.21 202.23 59.33 193.67 55.05 219.36" fill="#4cfd80"/>
<polygon points="42.36 202.27 54.99 219.11 59.2 193.85" fill="#4cfd80"/>
<polygon points="63.23 240.06 67.69 240.06 71.93 252.76 71.75 252.85" fill="#3afbb9"/>
<polygon points="67.62 240.16 63.41 240.16 71.83 252.79" fill="#3afbb9"/>
<polygon points="25.5 244.47 25.51 244.27 63.46 240.06 72.05 252.94" fill="#37f8b6"/>
<polygon points="63.41 240.16 25.52 244.37 71.83 252.79" fill="#37f8b6"/>
<polygon points="63.34 240.26 54.9 219.15 55.08 219.06 67.8 240.26" fill="#3afcb7"/>
<polygon points="54.99 219.11 63.41 240.16 67.62 240.16" fill="#3afcb7"/>
<polygon points="25.48 244.26 71.85 252.7 71.85 252.89 8.43 265.58" fill="#47fe93"/>
<polygon points="25.52 244.37 8.68 265.43 71.83 252.79" fill="#47fe93"/>
<polygon points="67.47 240.02 84.71 244.33 71.78 252.95" fill="#38f8d6"/>
<polygon points="67.62 240.16 71.83 252.79 84.46 244.37" fill="#38f8d6"/>
<polygon points="21.27 459.2 12.68 433.55 59.26 471.67 59.17 471.84" fill="#57bcbf"/>
<polygon points="12.89 433.85 21.31 459.11 59.2 471.74" fill="#57bcbf"/>
<polygon points="0.19 296.66 0.15 294.9 0.15 294.67 50.85 341.14 50.71 341.29" fill="#a6f9cc"/>
<polygon points="0.25 294.9 0.25 296.58 50.78 341.22" fill="#a6f9cc"/>
<polygon points="42.2 155.85 93.11 155.85 59.17 194.03" fill="#ebfdf0"/>
<polygon points="42.36 155.95 59.2 193.85 92.89 155.95" fill="#ebfdf0"/>
<polygon points="8.6 265.34 71.81 252.7 71.88 252.88 0.09 295.11" fill="#45fe8f"/>
<polygon points="8.68 265.43 0.25 294.9 71.83 252.79" fill="#45fe8f"/>
<polygon points="0.09 294.88 71.98 252.59 50.84 341.4" fill="#39f6bd"/>
<polygon points="0.25 294.9 50.78 341.22 71.83 252.79" fill="#39f6bd"/>
<polygon points="59.13 193.78 92.91 155.78 97.22 164.4 59.26 193.93" fill="#8efc92"/>
<polygon points="92.89 155.95 59.2 193.85 97.09 164.37" fill="#8efc92"/>
<polygon points="29.64 530.65 59.15 471.61 88.87 484.35 29.79 530.77" fill="#48d99d"/>
<polygon points="59.2 471.74 29.73 530.69 88.67 484.37" fill="#48d99d"/>
<polygon points="12.74 433.86 59.3 387.29 59.3 471.95" fill="#5aafc5"/>
<polygon points="59.2 387.53 12.89 433.85 59.2 471.74" fill="#5aafc5"/>
<polygon points="29.54 530.46 101.44 572.76 67.6 631.98" fill="#f9f7f9"/>
<polygon points="29.73 530.69 67.62 631.74 101.31 572.8" fill="#f9f7f9"/>
<polygon points="50.63 340.97 97.32 379.16 59.12 387.65" fill="#46ebaf"/>
<polygon points="50.78 341.22 59.2 387.53 97.09 379.11" fill="#46ebaf"/>
<polygon points="71.78 252.71 84.41 244.29 97.13 248.49 97.11 248.68 71.85 252.89" fill="#9feffd"/>
<polygon points="84.46 244.37 71.83 252.79 97.09 248.58" fill="#9feffd"/>
<polygon points="88.38 484.27 97.09 484.27 105.6 496.95 105.46 497.08" fill="#44ccdb"/>
<polygon points="97.09 484.37 88.67 484.37 105.52 497" fill="#44ccdb"/>
<polygon points="59.18 387.63 59.18 387.44 97.15 379 105.7 396.09" fill="#45c8cb"/>
<polygon points="97.09 379.11 59.2 387.53 105.52 395.95" fill="#45c8cb"/>
<polygon points="59.17 387.63 59.22 387.43 105.53 395.85 109.92 404.55" fill="#49c7cd"/>
<polygon points="105.52 395.95 59.2 387.53 109.73 404.37" fill="#49c7cd"/>
<polygon points="67.6 240.26 54.9 219.16 55.05 219.03 84.53 244.3 84.44 244.47" fill="#3bfcb4"/>
<polygon points="54.99 219.11 67.62 240.16 84.46 244.37" fill="#3bfcb4"/>
<polygon points="59.1 387.39 109.89 404.32 59.1 472.04" fill="#5b9dd8"/>
<polygon points="59.2 387.53 59.2 471.74 109.73 404.37" fill="#5b9dd8"/>
<polygon points="29.67 530.61 88.67 484.25 105.71 497.03 29.77 530.78" fill="#4adca2"/>
<polygon points="88.67 484.37 29.73 530.69 105.52 497" fill="#4adca2"/>
<polygon points="54.92 219.19 59.15 193.53 84.55 244.33 84.4 244.45" fill="#3afdb0"/>
<polygon points="59.2 193.85 54.99 219.11 84.46 244.37" fill="#3afdb0"/>
<polygon points="84.19 244.39 122.32 227.44 122.42 227.61 97.12 248.7" fill="#39e1fd"/>
<polygon points="84.46 244.37 97.09 248.58 122.36 227.53" fill="#39e1fd"/>
<polygon points="29.51 530.68 105.63 496.85 101.4 572.97" fill="#51e6b7"/>
<polygon points="29.73 530.69 101.31 572.8 105.52 497" fill="#51e6b7"/>
<polygon points="58.97 193.61 122.59 227.54 84.42 244.5" fill="#3bf1d9"/>
<polygon points="59.2 193.85 84.46 244.37 122.36 227.53" fill="#3bf1d9"/>
<polygon points="50.76 341.31 50.76 341.12 130.9 320.03 126.66 358.18" fill="#3bd5da"/>
<polygon points="50.78 341.22 126.57 358.06 130.78 320.17" fill="#3bd5da"/>
<polygon points="71.78 252.58 130.96 320.22 50.65 341.36" fill="#3dc6e7"/>
<polygon points="71.83 252.79 50.78 341.22 130.78 320.17" fill="#3dc6e7"/>
<polygon points="50.72 341.29 50.8 341.12 126.81 358.01 97.09 379.24" fill="#53afd7"/>
<polygon points="50.78 341.22 97.09 379.11 126.57 358.06" fill="#53afd7"/>
<polygon points="59.02 193.86 97.14 164.21 122.55 227.75" fill="#3afe4b"/>
<polygon points="97.09 164.37 59.2 193.85 122.36 227.53" fill="#3afe4b"/>
<polygon points="75.9 8.48 122.52 8.48 97.09 63.58" fill="#f8f6f8"/>
<polygon points="76.04 8.58 97.09 63.32 122.36 8.58" fill="#f8f6f8"/>
<polygon points="59.04 471.79 109.65 404.31 109.83 404.4 88.74 484.51" fill="#57c1be"/>
<polygon points="59.2 471.74 88.67 484.37 109.73 404.37" fill="#57c1be"/>
<polygon points="88.55 484.47 109.63 404.35 109.83 404.39 97.18 484.47" fill="#53b2df"/>
<polygon points="88.67 484.37 97.09 484.37 109.73 404.37" fill="#53b2df"/>
<polygon points="96.93 484.31 134.97 475.85 135.05 476.03 105.49 497.15" fill="#45c9de"/>
<polygon points="97.09 484.37 105.52 497 134.99 475.95" fill="#45c9de"/>
<polygon points="130.68 320.15 130.88 320.17 130.88 353.85 126.44 358.33" fill="#3fc4da"/>
<polygon points="126.57 358.06 130.78 353.85 130.78 320.17" fill="#3fc4da"/>
<polygon points="71.64 252.73 97.15 248.47 130.87 320.12 130.71 320.23" fill="#3adee4"/>
<polygon points="97.09 248.58 71.83 252.79 130.78 320.17" fill="#3adee4"/>
<polygon points="105.46 496.92 135.04 475.79 139.33 488.66 105.54 497.1" fill="#46c6da"/>
<polygon points="134.99 475.95 105.52 497 139.2 488.58" fill="#46c6da"/>
<polygon points="96.97 379.08 126.51 357.98 126.66 358.11 105.51 396.17" fill="#3ebbe8"/>
<polygon points="97.09 379.11 105.52 395.95 126.57 358.06" fill="#3ebbe8"/>
<polygon points="130.75 185.06 143.54 219.17 122.22 227.69" fill="#40e7ff"/>
<polygon points="130.78 185.43 122.36 227.53 143.41 219.11" fill="#40e7ff"/>
<polygon points="109.63 404.36 109.82 404.34 135.12 476.02 96.97 484.5" fill="#48adea"/>
<polygon points="109.73 404.37 97.09 484.37 134.99 475.95" fill="#48adea"/>
<polygon points="96.89 248.63 122.37 227.39 156.35 265.62" fill="#3bb9fd"/>
<polygon points="122.36 227.53 97.09 248.58 156.04 265.43" fill="#3bb9fd"/>
<polygon points="96.91 248.43 156.18 265.36 130.78 320.4" fill="#3ac5cf"/>
<polygon points="97.09 248.58 130.78 320.17 156.04 265.43" fill="#3ac5cf"/>
<polygon points="105.14 497 139.24 488.47 160.55 514.04" fill="#4bbdeb"/>
<polygon points="139.2 488.58 105.52 497 160.25 513.85" fill="#4bbdeb"/>
<polygon points="105.43 396 126.48 358.01 126.66 358.09 109.74 404.63" fill="#3ec1e6"/>
<polygon points="105.52 395.95 109.73 404.37 126.57 358.06" fill="#3ec1e6"/>
<polygon points="105.42 496.87 160.44 513.8 101.19 573.05" fill="#43d6d7"/>
<polygon points="105.52 497 101.31 572.8 160.25 513.85" fill="#43d6d7"/>
<polygon points="122.17 227.5 143.47 218.98 160.35 261.18 160.19 261.29" fill="#3fc2ff"/>
<polygon points="143.41 219.11 122.36 227.53 160.25 261.22" fill="#3fc2ff"/>
<polygon points="122.28 227.6 122.42 227.46 160.4 261.21 156.04 265.57" fill="#40adff"/>
<polygon points="122.36 227.53 156.04 265.43 160.25 261.22" fill="#40adff"/>
<polygon points="130.61 185.25 173.12 202.25 143.36 219.26" fill="#fffeff"/>
<polygon points="130.78 185.43 143.41 219.11 172.89 202.27" fill="#fffeff"/>
<polygon points="109.57 404.23 177.27 421.16 134.96 476.16" fill="#4faae8"/>
<polygon points="109.73 404.37 134.99 475.95 177.09 421.22" fill="#4faae8"/>
<polygon points="156.02 265.24 177.25 290.71 130.55 320.43" fill="#4f90ff"/>
<polygon points="156.04 265.43 130.78 320.17 177.09 290.69" fill="#4f90ff"/>
<polygon points="134.91 475.89 177.13 421.01 181.42 433.88 135.06 476.03" fill="#6285f0"/>
<polygon points="177.09 421.22 134.99 475.95 181.31 433.85" fill="#6285f0"/>
<polygon points="126.52 357.91 181.58 391.8 109.58 404.5" fill="#42b7dc"/>
<polygon points="126.57 358.06 109.73 404.37 181.31 391.74" fill="#42b7dc"/>
<polygon points="109.7 404.47 109.71 404.27 181.43 391.62 177.18 421.34" fill="#616eff"/>
<polygon points="109.73 404.37 177.09 421.22 181.31 391.74" fill="#616eff"/>
<polygon points="126.41 358.08 130.77 353.72 181.37 391.66 181.25 391.83" fill="#40bbdb"/>
<polygon points="130.78 353.85 126.57 358.06 181.31 391.74" fill="#40bbdb"/>
<polygon points="155.91 265.42 160.28 261.05 177.18 290.64 177.02 290.75" fill="#4a8ffd"/>
<polygon points="160.25 261.22 156.04 265.43 177.09 290.69" fill="#4a8ffd"/>
<polygon points="160.07 261.09 194.11 265.35 177.09 290.88" fill="#4c93fe"/>
<polygon points="160.25 261.22 177.09 290.69 193.94 265.43" fill="#4c93fe"/>
<polygon points="143.29 219.07 173.03 202.07 160.28 261.56" fill="#398dfe"/>
<polygon points="143.41 219.11 160.25 261.22 172.89 202.27" fill="#398dfe"/>
<polygon points="130.48 353.75 202.53 353.75 181.34 391.89" fill="#6d60ff"/>
<polygon points="130.78 353.85 181.31 391.74 202.36 353.85" fill="#6d60ff"/>
<polygon points="130.68 353.95 130.68 320.01 202.4 353.76 202.36 353.95" fill="#46b4e0"/>
<polygon points="130.78 320.17 130.78 353.85 202.36 353.85" fill="#46b4e0"/>
<polygon points="181.23 433.95 176.91 420.99 198.51 433.95" fill="#726ef8"/>
<polygon points="177.09 421.22 181.31 433.85 198.15 433.85" fill="#726ef8"/>
<polygon points="181.23 391.59 206.78 404.37 176.97 421.4" fill="#904efe"/>
<polygon points="181.31 391.74 177.09 421.22 206.57 404.37" fill="#904efe"/>
<polygon points="130.57 320.18 177.14 290.54 202.55 354.05" fill="#568cff"/>
<polygon points="177.09 290.69 130.78 320.17 202.36 353.85" fill="#568cff"/>
<polygon points="134.88 475.92 181.24 433.77 181.38 433.91 139.16 488.8" fill="#5282f5"/>
<polygon points="134.99 475.95 139.2 488.58 181.31 433.85" fill="#5282f5"/>
<polygon points="181.09 433.75 198.22 433.75 210.88 467.5 210.71 467.6" fill="#b04afd"/>
<polygon points="198.15 433.85 181.31 433.85 210.78 467.53" fill="#b04afd"/>
<polygon points="139.03 488.53 210.75 467.44 210.85 467.61 160.24 513.99" fill="#706af9"/>
<polygon points="139.2 488.58 160.25 513.85 210.78 467.53" fill="#706af9"/>
<polygon points="181.3 433.69 210.96 467.58 138.93 488.77" fill="#558ae9"/>
<polygon points="181.31 433.85 139.2 488.58 210.78 467.53" fill="#558ae9"/>
<polygon points="176.9 421.21 206.73 404.17 198.21 434" fill="#9d48ff"/>
<polygon points="177.09 421.22 198.15 433.85 206.57 404.37" fill="#9d48ff"/>
<polygon points="160.13 261.3 172.87 201.89 194.08 265.55" fill="#4e71ff"/>
<polygon points="172.89 202.27 160.25 261.22 193.94 265.43" fill="#4e71ff"/>
<rect transform="translate(-90.59 311.12) rotate(-81.25)" x="157.8" y="199.68" width=".2" height="55.38" fill="#fffeff"/>
<line x1="130.78" x2="185.52" y1="185.43" y2="193.85" fill="#fffeff"/>
<polygon points="198.05 433.88 198.22 433.78 215.06 450.62 210.8 467.87" fill="#a83dfe"/>
<polygon points="198.15 433.85 210.78 467.53 214.99 450.69" fill="#a83dfe"/>
<polygon points="189.54 96.86 206.66 101.14 215.09 147.51 214.9 147.58" fill="#fbf9fb"/>
<polygon points="206.57 101.22 189.73 97 214.99 147.53" fill="#fbf9fb"/>
<polygon points="193.9 265.3 223.71 278.08 176.86 290.86" fill="#577bfe"/>
<polygon points="193.94 265.43 177.09 290.69 223.41 278.06" fill="#577bfe"/>
<polygon points="172.69 201.99 227.8 244.38 193.88 265.58" fill="#5764ff"/>
<polygon points="172.89 202.27 193.94 265.43 227.62 244.37" fill="#5764ff"/>
<polygon points="206.4 100.86 227.75 126.47 214.94 147.81" fill="#f2f0f2"/>
<polygon points="206.57 101.22 214.99 147.53 227.62 126.48" fill="#f2f0f2"/>
<path transform="translate(.25 -37.73)" d="m185.26 787.37" fill="#fffeff"/>
<path transform="translate(.25 -37.73)" d="m185.26 787.37" fill="#fffeff"/>
<polygon points="181.17 391.79 202.43 353.51 206.68 404.54" fill="#8d51ff"/>
<polygon points="202.36 353.85 181.31 391.74 206.57 404.37" fill="#8d51ff"/>
<polygon points="210.8 467.38 232 497.07 159.9 514.03" fill="#8f46fe"/>
<polygon points="210.78 467.53 160.25 513.85 231.83 497" fill="#8f46fe"/>
<polygon points="193.72 265.44 227.75 244.18 223.49 278.2" fill="#6a5cff"/>
<polygon points="193.94 265.43 223.41 278.06 227.62 244.37" fill="#6a5cff"/>
<polygon points="172.72 202.26 185.54 193.72 227.7 244.31 227.56 244.45" fill="#477dfe"/>
<polygon points="185.52 193.85 172.89 202.27 227.62 244.37" fill="#477dfe"/>
<polygon points="223.08 278.16 236.14 269.45 236.14 278.16" fill="#5274f9"/>
<polygon points="236.04 269.64 223.41 278.06 236.04 278.06" fill="#5274f9"/>
<polygon points="227.52 244.36 227.72 244.34 236.16 269.68 223.28 278.26" fill="#656dfd"/>
<polygon points="227.62 244.37 223.41 278.06 236.04 269.64" fill="#656dfd"/>
<polygon points="176.88 290.43 240.44 332.8 202.31 353.99" fill="#5888ff"/>
<polygon points="177.09 290.69 202.36 353.85 240.25 332.8" fill="#5888ff"/>
<polygon points="176.86 290.65 223.48 277.94 240.43 333.04" fill="#528cff"/>
<polygon points="223.41 278.06 177.09 290.69 240.25 332.8" fill="#528cff"/>
<polygon points="210.7 467.59 210.85 467.46 240.43 492.82 231.8 497.13" fill="#9853ff"/>
<polygon points="210.78 467.53 231.83 497 240.25 492.8" fill="#9853ff"/>
<polygon points="198.04 433.88 206.47 404.35 206.67 404.36 215.15 450.99" fill="#a443fd"/>
<polygon points="206.57 404.37 198.15 433.85 214.99 450.69" fill="#a443fd"/>
<polygon points="214.98 147.37 253.1 189.72 185.33 193.96" fill="#60a7fe"/>
<polygon points="214.99 147.53 185.52 193.85 252.89 189.64" fill="#60a7fe"/>
<polygon points="240.18 332.73 252.99 319.92 252.99 328.66 240.28 332.89" fill="#c036e8"/>
<polygon points="240.25 332.8 252.89 328.58 252.89 320.17" fill="#c036e8"/>
<polygon points="223.32 278.09 223.49 278 253.02 320.18 240.21 332.98" fill="#9345f9"/>
<polygon points="223.41 278.06 240.25 332.8 252.89 320.17" fill="#9345f9"/>
<polygon points="206.45 404.27 244.65 404.27 214.94 450.96" fill="#c748e8"/>
<polygon points="206.57 404.37 214.99 450.69 244.46 404.37" fill="#c748e8"/>
<polygon points="227.5 244.31 240.38 240.02 236.14 269.65 235.95 269.67" fill="#6276ff"/>
<polygon points="227.62 244.37 236.04 269.64 240.25 240.16" fill="#6276ff"/>
<polygon points="214.91 450.64 244.46 404.2 257.24 421.24 215.05 450.77" fill="#c837ed"/>
<polygon points="244.46 404.37 214.99 450.69 257.1 421.22" fill="#c837ed"/>
<polygon points="214.92 147.6 215.05 147.45 257.21 176.97 252.93 189.83" fill="#66c4fb"/>
<polygon points="214.99 147.53 252.89 189.64 257.1 177" fill="#66c4fb"/>
<polygon points="185.31 193.76 253.05 189.53 227.65 244.56" fill="#5172fe"/>
<polygon points="185.52 193.85 227.62 244.37 252.89 189.64" fill="#5172fe"/>
<polygon points="252.79 189.59 252.98 189.66 240.35 240.19 227.44 244.54" fill="#6b50fe"/>
<polygon points="227.62 244.37 240.25 240.16 252.89 189.64" fill="#6b50fe"/>
<polygon points="223.22 277.96 236.11 277.96 252.98 320.13 252.8 320.22" fill="#844bfb"/>
<polygon points="236.04 278.06 223.41 278.06 252.89 320.17" fill="#844bfb"/>
<polygon points="206.48 404.47 202.23 353.54 244.68 404.47" fill="#c039ef"/>
<polygon points="202.36 353.85 206.57 404.37 244.46 404.37" fill="#c039ef"/>
<polygon points="244.38 404.43 244.52 404.29 261.46 416.99 257.08 421.37" fill="#ac5fe6"/>
<polygon points="244.46 404.37 257.1 421.22 261.31 417" fill="#ac5fe6"/>
<polygon points="214.63 147.4 261.42 151.65 257.17 177.18" fill="#f9f7f9"/>
<polygon points="214.99 147.53 257.1 177 261.31 151.74" fill="#f9f7f9"/>
<polygon points="235.94 278.13 235.94 269.45 261.36 286.4 261.27 286.57" fill="#566ffe"/>
<polygon points="236.04 269.64 236.04 278.06 261.31 286.48" fill="#566ffe"/>
<polygon points="235.87 277.89 261.43 286.41 252.91 320.49" fill="#9645fa"/>
<polygon points="236.04 278.06 252.89 320.17 261.31 286.48" fill="#9645fa"/>
<polygon points="210.67 467.57 214.95 450.43 240.34 492.74 240.19 492.87" fill="#9458fd"/>
<polygon points="214.99 450.69 210.78 467.53 240.25 492.8" fill="#9458fd"/>
<polygon points="252.79 320.14 261.25 286.28 269.86 294.89 252.97 320.22" fill="#9a45fb"/>
<polygon points="261.31 286.48 252.89 320.17 269.73 294.9" fill="#9a45fb"/>
<polygon points="202.21 353.82 240.34 332.63 244.58 404.67" fill="#ca38ea"/>
<polygon points="240.25 332.8 202.36 353.85 244.46 404.37" fill="#ca38ea"/>
<polygon points="257.03 176.89 274.26 181.19 252.72 189.81" fill="#cee7fd"/>
<polygon points="257.1 177 252.89 189.64 273.94 181.22" fill="#cee7fd"/>
<polygon points="240.13 332.49 274.07 374.91 244.38 404.6" fill="#cf3ee2"/>
<polygon points="240.25 332.8 244.46 404.37 273.94 374.9" fill="#cf3ee2"/>
<path transform="translate(.25 -37.73)" d="m223.16 147.37" fill="#fffeff"/>
<path transform="translate(.25 -37.73)" d="m223.16 147.37" fill="#fffeff"/>
<polygon points="240.17 240.06 265.76 240.06 235.9 269.92" fill="#705bff"/>
<polygon points="240.25 240.16 236.04 269.64 265.52 240.16" fill="#705bff"/>
<polygon points="231.72 496.95 240.34 492.64 244.56 547.52 244.37 547.56" fill="#955ffc"/>
<polygon points="240.25 492.8 231.83 497 244.46 547.53" fill="#955ffc"/>
<polygon points="252.79 320.06 278.15 320.06 278.18 320.26 252.79 328.72" fill="#ab44ee"/>
<polygon points="252.89 320.17 252.89 328.58 278.15 320.17" fill="#ab44ee"/>
<polygon points="252.7 320.26 269.76 294.67 278.29 320.26" fill="#a945ee"/>
<polygon points="269.73 294.9 252.89 320.17 278.15 320.17" fill="#a945ee"/>
<polygon points="252.73 189.41 278.27 206.44 265.5 240.5" fill="#5990fd"/>
<polygon points="252.89 189.64 265.52 240.16 278.15 206.48" fill="#5990fd"/>
<polygon points="240.09 332.75 252.94 328.46 274.03 374.86 273.86 374.96" fill="#b043ef"/>
<polygon points="252.89 328.58 240.25 332.8 273.94 374.9" fill="#b043ef"/>
<polygon points="240.13 240.26 252.79 189.61 252.98 189.61 265.64 240.26" fill="#814fff"/>
<polygon points="252.89 189.64 240.25 240.16 265.52 240.16" fill="#814fff"/>
<polygon points="256.91 421.26 261.29 416.88 282.41 429.55 282.33 429.73" fill="#b74feb"/>
<polygon points="261.31 417 257.1 421.22 282.36 429.64" fill="#b74feb"/>
<polygon points="269.63 294.93 269.81 294.84 282.48 311.73 278.13 320.43" fill="#ce38e1"/>
<polygon points="269.73 294.9 278.15 320.17 282.36 311.74" fill="#ce38e1"/>
<polygon points="252.67 189.62 274.02 181.08 278.29 206.69" fill="#698bff"/>
<polygon points="273.94 181.22 252.89 189.64 278.15 206.48" fill="#698bff"/>
<polygon points="256.98 177.08 261.26 151.39 274.11 181.36" fill="#7acafe"/>
<polygon points="261.31 151.74 257.1 177 273.94 181.22" fill="#7acafe"/>
<polygon points="235.89 269.65 265.64 239.9 261.39 286.65" fill="#527eff"/>
<polygon points="236.04 269.64 261.31 286.48 265.52 240.16" fill="#527eff"/>
<polygon points="244.31 404.38 273.87 374.83 274.04 374.93 261.36 417.17" fill="#daa4ef"/>
<polygon points="244.46 404.37 261.31 417 273.94 374.9" fill="#daa4ef"/>
<polygon points="214.86 450.66 257.25 420.98 240.29 493.06" fill="#8e5dfe"/>
<polygon points="214.99 450.69 240.25 492.8 257.1 421.22" fill="#8e5dfe"/>
<polygon points="277.99 320.26 282.33 311.57 291.02 320.26" fill="#da38dd"/>
<polygon points="282.36 311.74 278.15 320.17 290.78 320.17" fill="#da38dd"/>
<polygon points="261.01 416.94 290.96 412.67 282.4 429.78" fill="#b054ec"/>
<polygon points="261.31 417 282.36 429.64 290.78 412.8" fill="#b054ec"/>
<polygon points="273.8 180.99 290.93 193.84 278.08 206.69" fill="#ce93ff"/>
<polygon points="273.94 181.22 278.15 206.48 290.78 193.85" fill="#ce93ff"/>
<polygon points="273.71 181.17 290.88 176.88 290.88 194.05" fill="#fefbfd"/>
<polygon points="290.78 177 273.94 181.22 290.78 193.85" fill="#fefbfd"/>
<polygon points="265.42 240.13 278.09 206.34 286.72 210.65 265.6 240.22" fill="#8361ea"/>
<polygon points="278.15 206.48 265.52 240.16 286.57 210.69" fill="#8361ea"/>
<polygon points="273.92 374.61 290.93 412.88 261.17 417.13" fill="#cf44d4"/>
<polygon points="273.94 374.9 261.31 417 290.78 412.8" fill="#cf44d4"/>
<polygon points="277.98 206.51 290.96 193.52 286.64 210.84" fill="#a24be7"/>
<polygon points="278.15 206.48 286.57 210.69 290.78 193.85" fill="#a24be7"/>
<polygon points="240.16 492.77 257.02 421.09 282.51 429.58 240.34 492.85" fill="#c137ff"/>
<polygon points="257.1 421.22 240.25 492.8 282.36 429.64" fill="#c137ff"/>
<polygon points="290.68 176.84 299.35 181.18 290.68 194.18" fill="#cc85fc"/>
<polygon points="290.78 177 290.78 193.85 299.2 181.22" fill="#cc85fc"/>
<polygon points="252.75 328.52 278.26 320.02 274.04 374.91 273.85 374.94" fill="#9742f8"/>
<polygon points="252.89 328.58 273.94 374.9 278.15 320.17" fill="#9742f8"/>
<polygon points="273.85 374.94 274 374.82 303.56 400.16 290.75 412.97" fill="#d939e2"/>
<polygon points="273.94 374.9 290.78 412.8 303.41 400.16" fill="#d939e2"/>
<polygon points="273.72 374.84 295.06 370.57 303.6 400.46" fill="#e638d2"/>
<polygon points="294.99 370.69 273.94 374.9 303.41 400.16" fill="#e638d2"/>
<polygon points="278.06 319.99 303.56 336.98 273.81 375.22" fill="#e636cd"/>
<polygon points="278.15 320.17 273.94 374.9 303.41 337" fill="#e636cd"/>
<polygon points="303.33 336.94 303.51 337.03 295.07 370.78 273.69 375.05" fill="#c352cd"/>
<polygon points="273.94 374.9 294.99 370.69 303.41 337" fill="#c352cd"/>
<polygon points="277.82 320.06 290.78 320.06 303.49 336.94 303.36 337.09" fill="#e138d8"/>
<polygon points="290.78 320.17 278.15 320.17 303.41 337" fill="#e138d8"/>
<polygon points="240.09 492.86 282.48 429.27 278.24 501.34" fill="#a937ff"/>
<polygon points="240.25 492.8 278.15 501.22 282.36 429.64" fill="#a937ff"/>
<polygon points="299.19 181.06 307.82 189.69 290.55 194.01" fill="#cd84ff"/>
<polygon points="299.2 181.22 290.78 193.85 307.62 189.64" fill="#cd84ff"/>
<polygon points="277.97 501.18 307.58 488.49 307.69 488.65 286.57 509.78" fill="#fe6bef"/>
<polygon points="278.15 501.22 286.57 509.64 307.62 488.58" fill="#fe6bef"/>
<polygon points="278.05 501.21 282.27 429.44 303.54 446.45 278.24 501.26" fill="#de3bf7"/>
<polygon points="282.36 429.64 278.15 501.22 303.41 446.48" fill="#de3bf7"/>
<path transform="translate(.25 -37.73)" d="m303.16 134.74" fill="#fffeff"/>
<path transform="translate(.25 -37.73)" d="m303.16 134.74" fill="#fffeff"/>
<rect transform="translate(-1.36 198.38) rotate(-45)" x="263.37" y="119.9" width="41.68" height=".2" fill="#fffeff"/>
<line x1="299.2" x2="269.73" y1="67.53" y2="97.01" fill="#fffeff"/>
<polygon points="307.68 488.39 311.96 505.51 286.28 509.79" fill="#ffd6fb"/>
<polygon points="307.62 488.58 286.57 509.64 311.83 505.43" fill="#ffd6fb"/>
<polygon points="303.48 446.1 307.73 488.65 277.95 501.41" fill="#fc3b78"/>
<polygon points="303.41 446.48 278.15 501.22 307.62 488.58" fill="#fc3b78"/>
<polygon points="286.48 509.68 286.65 509.58 316.18 547.54 307.59 556.13" fill="#dcdadc"/>
<polygon points="286.57 509.64 307.62 555.95 316.04 547.53" fill="#dcdadc"/>
<polygon points="286.45 210.77 290.72 193.67 316.38 215.05" fill="#c241c6"/>
<polygon points="290.78 193.85 286.57 210.69 316.04 214.9" fill="#c241c6"/>
<polygon points="290.56 193.8 307.69 189.52 316.25 215.2" fill="#ce3ac5"/>
<polygon points="307.62 189.64 290.78 193.85 316.04 214.9" fill="#ce3ac5"/>
<polygon points="282.23 429.67 290.79 412.55 303.63 446.78" fill="#d447f5"/>
<polygon points="290.78 412.8 282.36 429.64 303.41 446.48" fill="#d447f5"/>
<polygon points="277.97 21.06 320.41 33.79 299.19 67.74" fill="#dfdddf"/>
<polygon points="278.15 21.22 299.2 67.53 320.25 33.85" fill="#dfdddf"/>
<polygon points="307.45 189.44 324.6 198.01 316.02 215.16" fill="#cc3aca"/>
<polygon points="307.62 189.64 316.04 214.9 324.46 198.06" fill="#cc3aca"/>
<polygon points="286.39 509.57 311.92 505.31 316.18 547.87" fill="#dcdadc"/>
<polygon points="311.83 505.43 286.57 509.64 316.04 547.53" fill="#dcdadc"/>
<polygon points="303.34 400.26 294.89 370.72 295.07 370.63 316.24 400.26" fill="#e137cc"/>
<polygon points="294.99 370.69 303.41 400.16 316.04 400.16" fill="#e137cc"/>
<polygon points="261.24 286.55 265.42 240.16 265.62 240.16 269.85 295.16" fill="#6270fe"/>
<polygon points="265.52 240.16 261.31 286.48 269.73 294.9" fill="#6270fe"/>
<polygon points="311.73 505.44 311.92 505.38 328.8 539.14 315.96 547.71" fill="#fffeff"/>
<polygon points="311.83 505.43 316.04 547.53 328.68 539.11" fill="#fffeff"/>
<polygon points="290.62 412.66 328.88 421.16 303.37 446.66" fill="#d338e2"/>
<polygon points="290.78 412.8 303.41 446.48 328.68 421.22" fill="#d338e2"/>
<polygon points="328.84 420.91 324.55 442.35 303.11 446.64" fill="#ee36a9"/>
<polygon points="303.41 446.48 324.46 442.27 328.68 421.22" fill="#ee36a9"/>
<polygon points="290.58 412.85 303.4 400.03 328.74 421.14 328.65 421.31" fill="#d838e9"/>
<polygon points="303.41 400.16 290.78 412.8 328.68 421.22" fill="#d838e9"/>
<polygon points="303.13 400.06 316.04 400.06 328.76 421.16 328.61 421.29" fill="#d736e2"/>
<polygon points="316.04 400.16 303.41 400.16 328.68 421.22" fill="#d736e2"/>
<polygon points="265.44 240.11 286.52 210.58 316.37 214.85 265.56 240.25" fill="#c138d5"/>
<polygon points="286.57 210.69 265.52 240.16 316.04 214.9" fill="#c138d5"/>
<polygon points="320.21 686.21 333.01 707.55 311.67 728.89" fill="#faf8fa"/>
<polygon points="320.25 686.48 311.83 728.59 332.89 707.53" fill="#faf8fa"/>
<polygon points="315.86 547.54 328.72 538.96 337.3 560.4" fill="#fbf9fb"/>
<polygon points="328.68 539.11 316.04 547.53 337.1 560.16" fill="#fbf9fb"/>
<polygon points="307.52 488.6 303.3 446.4 324.62 442.14 307.72 488.62" fill="#f935ce"/>
<polygon points="303.41 446.48 307.62 488.58 324.46 442.27" fill="#f935ce"/>
<polygon points="299.07 181.23 320.17 147.48 320.35 147.56 307.67 189.83" fill="#bc69fc"/>
<polygon points="299.2 181.22 307.62 189.64 320.25 147.53" fill="#bc69fc"/>
<polygon points="307.35 189.61 349.7 176.91 349.79 177.08 324.48 198.18" fill="#faf7f7"/>
<polygon points="307.62 189.64 324.46 198.06 349.73 177" fill="#faf7f7"/>
<polygon points="290.55 320.03 345.53 328.49 345.54 328.68 303.37 337.12" fill="#d937db"/>
<polygon points="290.78 320.17 303.41 337 345.52 328.58" fill="#d937db"/>
<polygon points="315.89 400.11 349.97 387.33 328.67 421.41" fill="#df3ab4"/>
<polygon points="316.04 400.16 328.68 421.22 349.73 387.53" fill="#df3ab4"/>
<polygon points="294.87 370.76 303.36 336.8 350.05 387.74" fill="#e436c0"/>
<polygon points="303.41 337 294.99 370.69 349.73 387.53" fill="#e436c0"/>
<polygon points="294.74 370.51 350.04 387.52 316.01 400.28" fill="#e438c6"/>
<polygon points="294.99 370.69 316.04 400.16 349.73 387.53" fill="#e438c6"/>
<polygon points="265.41 240.1 316.3 214.66 269.65 295.23" fill="#a452d2"/>
<polygon points="265.52 240.16 269.73 294.9 316.04 214.9" fill="#a452d2"/>
<polygon points="303.22 336.94 345.61 328.46 349.85 387.81" fill="#e638b8"/>
<polygon points="345.52 328.58 303.41 337 349.73 387.53" fill="#e638b8"/>
<polygon points="315.89 214.99 324.42 197.92 366.62 219.02 366.56 219.21" fill="#df48b6"/>
<polygon points="324.46 198.06 316.04 214.9 366.57 219.11" fill="#df48b6"/>
<polygon points="324.4 197.98 349.73 176.88 366.81 189.69 324.48 198.16" fill="#fbf9fb"/>
<polygon points="349.73 177 324.46 198.06 366.57 189.64" fill="#fbf9fb"/>
<polygon points="307.48 488.69 324.43 442.07 362.57 488.69" fill="#ff39c6"/>
<polygon points="324.46 442.27 307.62 488.58 362.36 488.58" fill="#ff39c6"/>
<polygon points="299.07 67.47 362.33 46.38 362.42 46.56 307.58 88.74" fill="#f9f7f9"/>
<polygon points="299.2 67.53 307.62 88.58 362.36 46.48" fill="#f9f7f9"/>
<polygon points="349.7 387.38 370.98 404.4 328.43 421.42" fill="#f13b65"/>
<polygon points="349.73 387.53 328.68 421.22 370.78 404.37" fill="#f13b65"/>
<polygon points="328.6 421.09 370.81 433.75 370.8 433.95 324.34 442.39" fill="#ef39a1"/>
<polygon points="328.68 421.22 324.46 442.27 370.78 433.85" fill="#ef39a1"/>
<polygon points="324.16 198.02 366.67 189.51 366.67 219.27" fill="#fd3b6f"/>
<polygon points="366.57 189.64 324.46 198.06 366.57 219.11" fill="#fd3b6f"/>
<rect x="345.52" y="597.96" width="8.42" height=".2" fill="#fffeff"/>
<line x1="345.52" x2="353.94" y1="598.06" y2="598.06" fill="#fffeff"/>
<path transform="translate(.25 -37.73)" d="m332.63 602.1" fill="#fffeff"/>
<path transform="translate(.25 -37.73)" d="m332.63 602.1" fill="#fffeff"/>
<polygon points="349.43 176.91 375.18 176.91 366.59 189.78" fill="#fe3860"/>
<polygon points="349.73 177 366.57 189.64 374.99 177" fill="#fe3860"/>
<polygon points="328.37 421.23 370.88 404.23 370.88 433.98" fill="#f23973"/>
<polygon points="328.68 421.22 370.78 433.85 370.78 404.37" fill="#f23973"/>
<polygon points="349.63 387.54 345.41 328.43 366.69 336.95 349.82 387.56" fill="#f43864"/>
<polygon points="345.52 328.58 349.73 387.53 366.57 337" fill="#f43864"/>
<polygon points="269.61 294.91 315.96 214.85 316.14 214.93 282.39 311.95" fill="#e038b8"/>
<polygon points="269.73 294.9 282.36 311.74 316.04 214.9" fill="#e038b8"/>
<polygon points="324.28 442.2 370.9 433.73 362.42 488.82" fill="#fc43a7"/>
<polygon points="324.46 442.27 362.36 488.58 370.78 433.85" fill="#fc43a7"/>
<polygon points="290.77 320.26 282.02 311.55 345.54 328.49 345.5 328.68" fill="#d938d7"/>
<polygon points="282.36 311.74 290.78 320.17 345.52 328.58" fill="#d938d7"/>
<polygon points="366.35 218.82 383.47 231.66 383.51 261.22 383.32 261.25" fill="#fc3684"/>
<polygon points="383.41 231.74 366.57 219.11 383.41 261.22" fill="#fc3684"/>
<polygon points="315.68 214.77 366.64 219.02 383.63 261.49" fill="#f34490"/>
<polygon points="366.57 219.11 316.04 214.9 383.41 261.22" fill="#f34490"/>
<polygon points="315.99 214.74 383.61 261.23 282.18 311.94" fill="#f64493"/>
<polygon points="316.04 214.9 282.36 311.74 383.41 261.22" fill="#f64493"/>
<polygon points="282.08 311.77 383.66 260.98 345.57 328.7" fill="#e739ac"/>
<polygon points="282.36 311.74 345.52 328.58 383.41 261.22" fill="#e739ac"/>
<polygon points="366.55 336.76 387.77 374.96 349.57 387.69" fill="#ff3f51"/>
<polygon points="366.57 337 349.73 387.53 387.62 374.9" fill="#ff3f51"/>
<polygon points="349.52 387.5 387.84 374.72 370.81 404.52" fill="#ff3c60"/>
<polygon points="349.73 387.53 370.78 404.37 387.62 374.9" fill="#ff3c60"/>
<polygon points="366.27 219.01 396.28 219.01 383.42 231.88" fill="#fd397c"/>
<polygon points="366.57 219.11 383.41 231.74 396.04 219.11" fill="#fd397c"/>
<polygon points="370.7 433.69 400.42 450.67 362.21 488.87" fill="#ff437e"/>
<polygon points="370.78 433.85 362.36 488.58 400.25 450.69" fill="#ff437e"/>
<polygon points="370.69 404.32 387.58 374.77 396.21 379.08 370.85 404.44" fill="#ff3a5f"/>
<polygon points="387.62 374.9 370.78 404.37 396.04 379.11" fill="#ff3a5f"/>
<polygon points="366.47 219.21 366.47 189.4 396.28 219.21" fill="#ff3877"/>
<polygon points="366.57 189.64 366.57 219.11 396.04 219.11" fill="#ff3877"/>
<polygon points="374.99 177.1 374.96 176.91 400.3 168.46 404.63 177.1" fill="#fbcfd7"/>
<polygon points="400.25 168.58 374.99 177 404.46 177" fill="#fbcfd7"/>
<polygon points="345.37 328.63 383.32 261.17 383.51 261.24 366.64 337.14" fill="#f3428a"/>
<polygon points="345.52 328.58 366.57 337 383.41 261.22" fill="#f3428a"/>
<polygon points="374.87 92.58 413.06 122.28 379.12 143.49" fill="#f9f7f9"/>
<polygon points="374.99 92.8 379.2 143.32 412.89 122.27" fill="#f9f7f9"/>
<polygon points="374.91 176.95 404.46 176.91 404.5 177.1 366.32 189.82" fill="#fd3a61"/>
<polygon points="374.99 177 366.57 189.64 404.46 177" fill="#fd3a61"/>
<polygon points="366.38 189.59 404.6 176.86 396.1 219.31" fill="#fe3a71"/>
<polygon points="366.57 189.64 396.04 219.11 404.46 177" fill="#fe3a71"/>
<polygon points="395.94 219.09 404.4 176.8 417.23 189.63 396.12 219.17" fill="#fd4588"/>
<polygon points="404.46 177 396.04 219.11 417.1 189.64" fill="#fd4588"/>
<polygon points="379.05 143.3 413.05 122.05 400.3 168.8" fill="#fddeec"/>
<polygon points="379.2 143.32 400.25 168.58 412.89 122.27" fill="#fddeec"/>
<polygon points="370.56 404.46 396.04 378.97 430.02 408.71" fill="#ff494f"/>
<polygon points="396.04 379.11 370.78 404.37 429.73 408.58" fill="#ff494f"/>
<polygon points="370.59 404.26 429.91 408.5 400.25 450.87" fill="#ff3a5f"/>
<polygon points="370.78 404.37 400.25 450.69 429.73 408.58" fill="#ff3a5f"/>
<polygon points="370.68 433.91 370.68 404.03 400.34 450.64 400.2 450.78" fill="#ff3975"/>
<polygon points="370.78 404.37 370.78 433.85 400.25 450.69" fill="#ff3975"/>
<polygon points="417.1 189.46 434.11 214.98 395.83 219.24" fill="#fb3885"/>
<polygon points="417.1 189.64 396.04 219.11 433.94 214.9" fill="#fb3885"/>
<polygon points="383.31 261.22 383.31 231.74 395.97 219.04 396.14 219.14 383.51 261.25" fill="#fd3881"/>
<polygon points="383.41 231.74 383.41 261.22 396.04 219.11" fill="#fd3881"/>
<polygon points="362.15 488.65 400.26 450.55 451.06 505.58" fill="#fd8cb1"/>
<polygon points="400.25 450.69 362.36 488.58 450.78 505.43" fill="#fd8cb1"/>
<polygon points="383.35 261.06 451 303.34 366.43 337.17" fill="#fa447e"/>
<polygon points="383.41 261.22 366.57 337 450.78 303.32" fill="#fa447e"/>
<polygon points="383.34 261.14 433.93 214.77 450.97 227.55 383.46 261.31" fill="#f2398e"/>
<polygon points="433.94 214.9 383.41 261.22 450.78 227.53" fill="#f2398e"/>
<polygon points="400.18 450.76 400.29 450.6 450.88 467.46 450.88 505.68" fill="#fdd9de"/>
<polygon points="450.78 467.53 400.25 450.69 450.78 505.43" fill="#fdd9de"/>
<polygon points="395.97 219.02 434.23 214.77 383.21 261.54" fill="#f8398f"/>
<polygon points="396.04 219.11 383.41 261.22 433.94 214.9" fill="#f8398f"/>
<polygon points="387.58 374.99 366.48 337.05 366.65 336.95 396.13 379.05 396 379.2" fill="#f84365"/>
<polygon points="366.57 337 387.62 374.9 396.04 379.11" fill="#f84365"/>
<polygon points="366.42 336.96 451.06 303.1 396.04 379.28" fill="#f34677"/>
<polygon points="366.57 337 396.04 379.11 450.78 303.32" fill="#f34677"/>
<polygon points="400.1 450.74 429.76 408.37 450.94 467.69" fill="#fd4c4e"/>
<polygon points="429.73 408.58 400.25 450.69 450.78 467.53" fill="#fd4c4e"/>
<polygon points="429.63 408.62 429.8 408.51 467.76 446.47 450.75 467.73" fill="#ff5a36"/>
<polygon points="429.73 408.58 450.78 467.53 467.62 446.48" fill="#ff5a36"/>
<polygon points="416.89 189.5 472.19 198.01 433.9 215.03" fill="#ff3877"/>
<polygon points="417.1 189.64 433.94 214.9 471.83 198.06" fill="#ff3877"/>
<polygon points="433.74 214.88 472.13 197.82 450.8 227.67" fill="#ff387a"/>
<polygon points="433.94 214.9 450.78 227.53 471.83 198.06" fill="#ff387a"/>
<polygon points="450.68 505.53 450.68 467.53 450.88 467.51 459.32 505.53" fill="#ff6a39"/>
<polygon points="450.78 467.53 450.78 505.43 459.2 505.43" fill="#ff6a39"/>
<polygon points="383.21 261.21 450.88 227.37 450.88 303.5" fill="#fc3b79"/>
<polygon points="383.41 261.22 450.78 303.32 450.78 227.53" fill="#fc3b79"/>
<polygon points="450.64 467.35 476.19 480.12 459.15 505.68" fill="#fe6938"/>
<polygon points="450.78 467.53 459.2 505.43 476.04 480.16" fill="#fe6938"/>
<polygon points="429.52 408.52 471.94 400.04 467.7 446.7" fill="#ff513f"/>
<polygon points="429.73 408.58 467.62 446.48 471.83 400.16" fill="#ff513f"/>
<polygon points="404.39 177.08 412.79 122.25 412.99 122.26 417.21 189.9" fill="#fdeaed"/>
<polygon points="412.89 122.27 404.46 177 417.1 189.64" fill="#fdeaed"/>
<polygon points="400.16 168.63 412.79 122.24 412.98 122.28 404.51 177.33" fill="#fffcfe"/>
<polygon points="400.25 168.58 404.46 177 412.89 122.27" fill="#fffcfe"/>
<rect x="484.36" y=".16" width=".2" height="4.21" fill="#fffeff"/>
<line x1="484.46" x2="484.46" y1="4.37" y2=".16" fill="#fffeff"/>
<path transform="translate(.25 -37.73)" d="m450.53 54.74" fill="#fffeff"/>
<path transform="translate(.25 -37.73)" d="m450.53 54.74" fill="#fffeff"/>
<polygon points="395.8 379.03 484.84 370.56 429.72 408.71" fill="#ff463a"/>
<polygon points="396.04 379.11 429.73 408.58 484.46 370.69" fill="#ff463a"/>
<polygon points="429.67 408.5 484.69 370.41 471.93 400.2 429.75 408.68" fill="#fc4f40"/>
<polygon points="429.73 408.58 471.83 400.16 484.46 370.69" fill="#fc4f40"/>
<polygon points="450.8 303.13 484.62 370.78 395.83 379.23" fill="#fd4f59"/>
<polygon points="450.78 303.32 396.04 379.11 484.46 370.69" fill="#fd4f59"/>
<polygon points="450.63 467.57 467.67 446.26 476.19 480.35" fill="#fe723b"/>
<polygon points="467.62 446.48 450.78 467.53 476.04 480.16" fill="#fe723b"/>
<polygon points="484.49 370.38 488.79 387.57 471.59 400.47" fill="#fe623a"/>
<polygon points="484.46 370.69 471.83 400.16 488.68 387.53" fill="#fe623a"/>
<polygon points="450.72 690.53 488.94 716.01 442.22 724.5" fill="#fcfafc"/>
<polygon points="450.78 690.69 442.36 724.37 488.68 715.95" fill="#fcfafc"/>
<polygon points="476.03 480.01 493.08 497.06 458.97 505.59" fill="#ff7c3a"/>
<polygon points="476.04 480.16 459.2 505.43 492.89 497" fill="#ff7c3a"/>
<polygon points="450.55 303.08 488.78 324.32 484.53 371.05" fill="#fe4c5b"/>
<polygon points="450.78 303.32 484.46 370.69 488.68 324.37" fill="#fe4c5b"/>
<polygon points="450.61 227.6 471.85 197.86 488.85 236.09" fill="#ff3a76"/>
<polygon points="471.83 198.06 450.78 227.53 488.68 235.95" fill="#ff3a76"/>
<polygon points="471.77 400.08 488.69 387.4 497.3 396.02 471.85 400.26" fill="#ff6c3a"/>
<polygon points="488.68 387.53 471.83 400.16 497.1 395.95" fill="#ff6c3a"/>
<polygon points="417 189.72 412.77 121.95 472.07 198.19" fill="#fe427d"/>
<polygon points="412.89 122.27 417.1 189.64 471.83 198.06" fill="#fe427d"/>
<polygon points="412.59 122.05 501.46 155.91 471.84 198.23" fill="#fc3c76"/>
<polygon points="412.89 122.27 471.83 198.06 501.31 155.95" fill="#fc3c76"/>
<polygon points="450.68 227.41 488.83 235.88 450.68 303.7" fill="#ff3969"/>
<polygon points="450.78 227.53 450.78 303.32 488.68 235.95" fill="#ff3969"/>
<polygon points="412.81 122.2 480.25 50.55 497.25 67.55 412.94 122.35" fill="#f1eff1"/>
<polygon points="480.25 50.69 412.89 122.27 497.1 67.53" fill="#f1eff1"/>
<polygon points="471.65 37.96 505.52 37.96 505.56 38.15 480.22 50.82" fill="#f0eef0"/>
<polygon points="471.83 38.06 480.25 50.69 505.52 38.06" fill="#f0eef0"/>
<polygon points="450.44 303.25 505.71 299 488.71 324.51" fill="#fe4e48"/>
<polygon points="450.78 303.32 488.68 324.37 505.52 299.11" fill="#fe4e48"/>
<polygon points="471.75 399.92 505.7 438.12 467.51 446.61" fill="#ff713a"/>
<polygon points="471.83 400.16 467.62 446.48 505.52 438.06" fill="#ff713a"/>
<polygon points="467.47 446.28 505.74 467.54 475.97 480.3" fill="#ff793e"/>
<polygon points="467.62 446.48 476.04 480.16 505.52 467.53" fill="#ff793e"/>
<polygon points="459.06 505.36 493.04 496.86 476.05 547.82" fill="#faf2f0"/>
<polygon points="459.2 505.43 476.04 547.53 492.89 497" fill="#faf2f0"/>
<polygon points="475.83 480.09 509.96 475.82 492.89 497.15" fill="#fd7437"/>
<polygon points="476.04 480.16 492.89 497 509.73 475.95" fill="#fd7437"/>
<polygon points="476 480.07 505.56 467.4 509.88 476.03 476.06 480.26" fill="#ff8038"/>
<polygon points="505.52 467.53 476.04 480.16 509.73 475.95" fill="#ff8038"/>
<polygon points="480.08 50.66 505.68 37.87 497.14 67.72" fill="#f5f3f5"/>
<polygon points="480.25 50.69 497.1 67.53 505.52 38.06" fill="#f5f3f5"/>
<polygon points="467.34 446.44 505.62 437.93 505.62 467.7" fill="#fd8235"/>
<polygon points="467.62 446.48 505.52 467.53 505.52 438.06" fill="#fd8235"/>
<polygon points="471.64 400.09 497.17 395.84 505.69 438.4" fill="#ff5f3a"/>
<polygon points="497.1 395.95 471.83 400.16 505.52 438.06" fill="#ff5f3a"/>
<polygon points="450.59 690.68 505.68 661.01 488.73 716.11" fill="#e4e2e4"/>
<polygon points="450.78 690.69 488.68 715.95 505.52 661.22" fill="#e4e2e4"/>
<polygon points="488.71 235.69 505.64 299.2 450.6 303.44" fill="#ff474c"/>
<polygon points="488.68 235.95 450.78 303.32 505.52 299.11" fill="#ff474c"/>
<polygon points="513.84 244.36 514.04 244.35 522.46 282.25 505.37 299.4" fill="#ff593a"/>
<polygon points="513.94 244.37 505.52 299.11 522.36 282.27" fill="#ff593a"/>
<polygon points="488.53 235.8 514.05 244.31 505.62 299.13 505.42 299.14" fill="#ff463b"/>
<polygon points="488.68 235.95 505.52 299.11 513.94 244.37" fill="#ff463b"/>
<polygon points="505.42 437.94 539.46 442.2 505.42 467.73" fill="#fe9d39"/>
<polygon points="505.52 438.06 505.52 467.53 539.2 442.27" fill="#fe9d39"/>
<polygon points="488.6 387.6 484.37 370.71 484.55 370.65 497.19 395.91 497.02 396.02" fill="#ff5f39"/>
<polygon points="484.46 370.69 488.68 387.53 497.1 395.95" fill="#ff5f39"/>
<polygon points="488.5 324.46 505.49 298.97 543.74 328.71" fill="#fc5943"/>
<polygon points="505.52 299.11 488.68 324.37 543.41 328.58" fill="#fc5943"/>
<polygon points="488.58 324.27 543.69 328.51 484.35 370.9" fill="#fe4e48"/>
<polygon points="488.68 324.37 484.46 370.69 543.41 328.58" fill="#fe4e48"/>
<polygon points="505.39 467.5 539.14 442.19 539.27 442.33 509.7 476.13" fill="#fd993b"/>
<polygon points="505.52 467.53 509.73 475.95 539.2 442.27" fill="#fd993b"/>
<polygon points="526.55 0 552.02 25.48 505.31 38.22" fill="#efedef"/>
<polygon points="526.57 0.17 505.52 38.06 551.83 25.43" fill="#efedef"/>
<polygon points="505.37 299.12 522.39 282.1 543.5 328.54 543.35 328.66" fill="#ff5c38"/>
<polygon points="522.36 282.27 505.52 299.11 543.41 328.58" fill="#ff5c38"/>
<polygon points="505.43 438.15 496.93 395.62 539.46 442.4" fill="#fd6d38"/>
<polygon points="497.1 395.95 505.52 438.06 539.2 442.27" fill="#fd6d38"/>
<polygon points="488.64 236.05 471.74 198.1 471.91 197.99 514.27 244.59" fill="#fe3860"/>
<polygon points="471.83 198.06 488.68 235.95 513.94 244.37" fill="#fe3860"/>
<polygon points="492.73 497.03 509.73 475.79 551.91 530.63 551.78 530.78" fill="#ff713e"/>
<polygon points="509.73 475.95 492.89 497 551.83 530.69" fill="#ff713e"/>
<polygon points="471.7 198.07 501.37 155.69 514.08 244.68" fill="#fd3853"/>
<polygon points="501.31 155.95 471.83 198.06 513.94 244.37" fill="#fd3853"/>
<polygon points="501.23 156.02 501.35 155.86 564.57 189.58 560.32 219.33" fill="#fafbed"/>
<polygon points="501.31 155.95 560.25 219.11 564.46 189.64" fill="#fafbed"/>
<polygon points="501.16 155.65 560.41 219.14 513.86 244.53" fill="#fd843a"/>
<polygon points="501.31 155.95 513.94 244.37 560.25 219.11" fill="#fd843a"/>
<polygon points="484.34 370.66 543.35 328.5 543.49 328.64 497.08 396.15" fill="#ff6637"/>
<polygon points="484.46 370.69 497.1 395.95 543.41 328.58" fill="#ff6637"/>
<polygon points="513.8 244.23 577.42 261.2 522.29 282.4" fill="#ff5f39"/>
<polygon points="513.94 244.37 522.36 282.27 577.1 261.22" fill="#ff5f39"/>
<polygon points="513.67 244.41 560.3 218.97 577.26 261.36" fill="#fe5d38"/>
<polygon points="560.25 219.11 513.94 244.37 577.1 261.22" fill="#fe5d38"/>
<polygon points="497.01 395.9 543.38 328.45 577.29 349.64 497.14 396.04" fill="#ff613a"/>
<polygon points="543.41 328.58 497.1 395.95 577.1 349.64" fill="#ff613a"/>
<polygon points="509.52 476.03 539.19 442.13 590.04 484.51" fill="#ff8539"/>
<polygon points="539.2 442.27 509.73 475.95 589.73 484.37" fill="#ff8539"/>
<polygon points="509.51 475.83 589.92 484.29 551.83 530.85" fill="#ff743a"/>
<polygon points="509.73 475.95 551.83 530.69 589.73 484.37" fill="#ff743a"/>
<polygon points="564.38 189.58 572.8 176.95 581.61 176.91 564.52 189.72" fill="#ffd060"/>
<polygon points="572.89 177 564.46 189.64 581.31 177" fill="#ffd060"/>
<polygon points="509.58 593.89 551.9 530.4 560.37 615.06" fill="#f9f7f9"/>
<polygon points="551.83 530.69 509.73 593.85 560.25 614.9" fill="#f9f7f9"/>
<polygon points="538.89 442.14 589.83 446.39 589.83 484.59" fill="#faa037"/>
<polygon points="539.2 442.27 589.73 484.37 589.73 446.48" fill="#faa037"/>
<polygon points="551.62 530.79 589.9 484.01 581.39 530.79" fill="#ff9c38"/>
<polygon points="551.83 530.69 581.31 530.69 589.73 484.37" fill="#ff9c38"/>
<polygon points="522.22 282.21 577.3 261.03 543.41 328.82" fill="#ff6a37"/>
<polygon points="522.36 282.27 543.41 328.58 577.1 261.22" fill="#ff6a37"/>
<polygon points="581.21 530.67 589.67 484.11 598.26 497 581.4 530.74" fill="#ff8c3a"/>
<polygon points="589.73 484.37 581.31 530.69 598.15 497" fill="#ff8c3a"/>
<polygon points="496.94 395.93 577.3 349.4 539.23 442.45" fill="#fd8037"/>
<polygon points="497.1 395.95 539.2 442.27 577.1 349.64" fill="#fd8037"/>
<polygon points="598.19 496.7 602.47 518.11 581.06 530.95" fill="#fcc13a"/>
<polygon points="598.15 497 581.31 530.69 602.36 518.06" fill="#fcc13a"/>
<polygon points="560.14 219.21 564.39 189.45 602.65 219.21" fill="#ff8b3c"/>
<polygon points="564.46 189.64 560.25 219.11 602.36 219.11" fill="#ff8b3c"/>
<polygon points="589.63 446.24 606.7 463.31 589.63 484.66" fill="#ffbf3a"/>
<polygon points="589.73 446.48 589.73 484.37 606.57 463.32" fill="#ffbf3a"/>
<polygon points="560.11 219.01 602.53 219.01 577.08 261.44" fill="#ff9c3b"/>
<polygon points="560.25 219.11 577.1 261.22 602.36 219.11" fill="#ff9c3b"/>
<polygon points="564.3 189.64 581.34 176.85 602.45 219.07 602.3 219.19" fill="#ffcd39"/>
<polygon points="581.31 177 564.46 189.64 602.36 219.11" fill="#ffcd39"/>
<polygon points="539.11 442.23 577.06 349.46 610.93 383.33 539.26 442.35" fill="#fd7e38"/>
<polygon points="577.1 349.64 539.2 442.27 610.78 383.32" fill="#fd7e38"/>
<polygon points="581.22 177.05 581.38 176.94 610.92 210.69 602.33 219.28" fill="#fecf38"/>
<polygon points="581.31 177 602.36 219.11 610.78 210.69" fill="#fecf38"/>
<polygon points="538.95 442.35 610.99 383.02 589.8 446.59" fill="#ff7f3c"/>
<polygon points="539.2 442.27 589.73 446.48 610.78 383.32" fill="#ff7f3c"/>
<polygon points="598 496.79 623.67 513.9 602.28 518.17" fill="#ffac39"/>
<polygon points="598.15 497 602.36 518.06 623.41 513.85" fill="#ffac39"/>
<polygon points="589.49 446.38 623.65 446.38 606.57 463.46" fill="#ffc038"/>
<polygon points="589.73 446.48 606.57 463.32 623.41 446.48" fill="#ffc038"/>
<polygon points="576.89 349.58 619.33 341.09 610.84 383.52" fill="#ff9639"/>
<polygon points="577.1 349.64 610.78 383.32 619.2 341.22" fill="#ff9639"/>
<polygon points="577.06 349.54 615.02 336.89 619.4 341.28 577.11 349.74" fill="#ffa03d"/>
<polygon points="614.99 337 577.1 349.64 619.2 341.22" fill="#ffa03d"/>
<polygon points="614.9 278.01 615.09 278.06 615.09 337.08 576.89 349.81" fill="#fbab39"/>
<polygon points="577.1 349.64 614.99 337 614.99 278.06" fill="#fbab39"/>
<polygon points="543.23 328.59 614.93 277.98 615.08 278.11 577.13 349.78" fill="#fe9938"/>
<polygon points="543.41 328.58 577.1 349.64 614.99 278.06" fill="#fe9938"/>
<polygon points="543.32 328.54 577.05 261.09 615.19 278.04 543.47 328.67" fill="#f0a96c"/>
<polygon points="577.1 261.22 543.41 328.58 614.99 278.06" fill="#f0a96c"/>
<polygon points="589.6 484.37 606.49 463.26 606.67 463.35 598.19 497.25" fill="#fdb138"/>
<polygon points="589.73 484.37 598.15 497 606.57 463.32" fill="#fdb138"/>
<polygon points="619.2 341.32 614.92 337.08 615.03 336.92 623.46 341.13 623.41 341.32" fill="#fad037"/>
<polygon points="614.99 337 619.2 341.22 623.41 341.22" fill="#fad037"/>
<polygon points="576.95 261.26 602.4 218.84 615.13 278.23" fill="#fb9d34"/>
<polygon points="602.36 219.11 577.1 261.22 614.99 278.06" fill="#fb9d34"/>
<polygon points="610.75 383.08 636.19 425.47 589.56 446.67" fill="#feaa37"/>
<polygon points="610.78 383.32 589.73 446.48 636.04 425.43" fill="#feaa37"/>
<polygon points="589.73 446.58 589.69 446.39 636.29 425.2 623.47 446.58" fill="#ffc536"/>
<polygon points="589.73 446.48 623.41 446.48 636.04 425.43" fill="#ffc536"/>
<polygon points="602.14 219.19 610.76 210.57 636.09 223.23 636.03 223.42" fill="#ffc139"/>
<polygon points="610.78 210.69 602.36 219.11 636.04 223.32" fill="#ffc139"/>
<polygon points="610.68 383.3 619.12 341.12 623.55 341.12 610.88 383.35" fill="#fe9139"/>
<polygon points="619.2 341.22 610.78 383.32 623.41 341.22" fill="#fe9139"/>
<polygon points="614.75 337 644.42 324.28 644.53 324.45 623.42 341.33" fill="#ffd63b"/>
<polygon points="614.99 337 623.41 341.22 644.46 324.37" fill="#ffd63b"/>
<polygon points="602.23 218.99 636.18 223.24 614.96 278.41" fill="#f3b94d"/>
<polygon points="602.36 219.11 614.99 278.06 636.04 223.32" fill="#f3b94d"/>
<polygon points="614.9 278.02 636.01 223.12 648.8 240.17 615.06 278.13" fill="#febb37"/>
<polygon points="636.04 223.32 614.99 278.06 648.67 240.16" fill="#febb37"/>
<polygon points="636.01 425.29 648.87 433.86 623.15 446.72" fill="#ffd639"/>
<polygon points="636.04 425.43 623.41 446.48 648.67 433.85" fill="#ffd639"/>
<polygon points="614.89 277.71 644.61 324.42 614.89 337.16" fill="#ffd13a"/>
<polygon points="614.99 278.06 614.99 337 644.46 324.37" fill="#ffd13a"/>
<polygon points="581.14 176.97 640.47 151.54 610.8 210.87" fill="#fee671"/>
<polygon points="581.31 177 610.78 210.69 640.25 151.74" fill="#fee671"/>
<polygon points="598.03 497.05 606.56 462.96 623.6 514.09" fill="#ffb438"/>
<polygon points="606.57 463.32 598.15 497 623.41 513.85" fill="#ffb438"/>
<polygon points="623.35 341.14 644.47 324.24 653.08 332.85 623.44 341.31" fill="#ffdd3c"/>
<polygon points="644.46 324.37 623.41 341.22 652.89 332.8" fill="#ffdd3c"/>
<polygon points="610.69 210.65 640.25 151.52 653.01 177.03 610.84 210.77" fill="#ffed38"/>
<polygon points="640.25 151.74 610.78 210.69 652.89 177" fill="#ffed38"/>
<polygon points="640 151.45 652.94 160.08 652.99 177 652.8 177.05" fill="#fff861"/>
<polygon points="652.89 160.16 640.25 151.74 652.89 177" fill="#fff861"/>
<polygon points="623.34 513.95 606.48 463.35 606.66 463.28 627.77 513.95" fill="#ffbb3d"/>
<polygon points="606.57 463.32 623.41 513.85 627.62 513.85" fill="#ffbb3d"/>
<polygon points="623.17 513.75 627.62 513.75 657.17 547.47 657.02 547.6" fill="#fea43a"/>
<polygon points="627.62 513.85 623.41 513.85 657.1 547.53" fill="#fea43a"/>
<polygon points="627.55 513.91 627.69 513.78 657.16 543.25 657.19 547.8" fill="#fdcb3d"/>
<polygon points="657.1 543.32 627.62 513.85 657.1 547.53" fill="#fdcb3d"/>
<polygon points="602.07 518.01 623.39 513.75 657.16 547.46 657.05 547.62" fill="#fbce3b"/>
<polygon points="623.41 513.85 602.36 518.06 657.1 547.53" fill="#fbce3b"/>
<polygon points="627.31 513.75 636.04 513.75 657.16 534.83 657.04 534.98" fill="#fca739"/>
<polygon points="636.04 513.85 627.62 513.85 657.1 534.9" fill="#fca739"/>
<polygon points="627.55 513.92 627.68 513.77 657.15 534.82 657.19 543.56" fill="#ffcf40"/>
<polygon points="627.62 513.85 657.1 543.32 657.1 534.9" fill="#ffcf40"/>
<polygon points="635.97 513.92 636.07 513.75 648.71 517.96 657.18 534.85 657.02 534.97" fill="#fecd3b"/>
<polygon points="648.67 518.06 636.04 513.85 657.1 534.9" fill="#fecd3b"/>
<polygon points="610.65 383.42 623.38 340.99 653.08 383.42" fill="#fe9739"/>
<polygon points="623.41 341.22 610.78 383.32 652.89 383.32" fill="#fe9739"/>
<polygon points="610.6 383.22 653.03 383.22 636.06 425.65" fill="#ffbc38"/>
<polygon points="610.78 383.32 636.04 425.43 652.89 383.32" fill="#ffbc38"/>
<polygon points="610.6 210.71 653.1 176.71 636.1 223.46" fill="#ffdf39"/>
<polygon points="610.78 210.69 636.04 223.32 652.89 177" fill="#ffdf39"/>
<polygon points="652.79 159.83 661.45 172.83 652.79 177.17" fill="#fffdff"/>
<polygon points="652.89 160.16 652.89 177 661.31 172.79" fill="#fffdff"/>
<polygon points="652.89 177.1 652.84 176.92 661.4 172.63 661.4 177.1" fill="#fef760"/>
<polygon points="652.89 177 661.31 177 661.31 172.79" fill="#fef760"/>
<polygon points="614.8 277.94 661.45 282.18 644.48 324.59" fill="#ffd739"/>
<polygon points="614.99 278.06 644.46 324.37 661.31 282.27" fill="#ffd739"/>
<polygon points="614.78 278.14 648.72 239.96 661.44 282.38" fill="#ffb839"/>
<polygon points="648.67 240.16 614.99 278.06 661.31 282.27" fill="#ffb839"/>
<polygon points="627.56 513.95 606.48 463.36 606.65 463.27 636.22 513.95" fill="#ffaa36"/>
<polygon points="606.57 463.32 627.62 513.85 636.04 513.85" fill="#ffaa36"/>
<polygon points="635.78 513.87 669.68 496.92 669.8 497.07 648.7 518.17" fill="#fecf3c"/>
<polygon points="636.04 513.85 648.67 518.06 669.73 497" fill="#fecf3c"/>
<polygon points="648.67 433.95 635.99 425.51 636.08 425.33 657.13 433.76 657.1 433.95" fill="#ffe839"/>
<polygon points="636.04 425.43 648.67 433.85 657.1 433.85" fill="#ffe839"/>
<polygon points="623.25 341.16 652.99 332.66 652.99 383.64" fill="#fea337"/>
<polygon points="623.41 341.22 652.89 383.32 652.89 332.8" fill="#fea337"/>
<polygon points="652.85 176.82 674.1 198.07 635.84 223.57" fill="#f9ed38"/>
<polygon points="652.89 177 636.04 223.32 673.94 198.06" fill="#f9ed38"/>
<polygon points="652.64 176.91 661.31 176.91 674.02 198.01 673.87 198.13" fill="#fef33a"/>
<polygon points="661.31 177 652.89 177 673.94 198.06" fill="#fef33a"/>
<polygon points="623.25 446.15 669.89 497.04 635.97 514" fill="#ffcb3a"/>
<polygon points="623.41 446.48 636.04 513.85 669.73 497" fill="#ffcb3a"/>
<polygon points="606.44 463.31 623.48 446.27 636.14 513.83 635.96 513.9" fill="#ffc139"/>
<polygon points="623.41 446.48 606.57 463.32 636.04 513.85" fill="#ffc139"/>
<polygon points="652.79 383.32 652.79 332.67 669.86 336.94 652.98 383.36" fill="#ffd03b"/>
<polygon points="652.89 332.8 652.89 383.32 669.73 337" fill="#ffd03b"/>
<polygon points="635.91 425.48 652.79 383.28 652.99 383.31 657.21 434" fill="#feeb36"/>
<polygon points="652.89 383.32 636.04 425.43 657.1 433.85" fill="#feeb36"/>
<polygon points="635.9 223.3 673.88 197.97 674.02 198.11 648.68 240.34" fill="#ffd437"/>
<polygon points="636.04 223.32 648.67 240.16 673.94 198.06" fill="#ffd437"/>
<polygon points="652.74 383.42 669.63 336.97 669.83 337 669.83 383.42" fill="#f1e0af"/>
<polygon points="669.73 337 652.89 383.32 669.73 383.32" fill="#f1e0af"/>
<polygon points="623.25 446.45 648.73 433.71 669.82 496.97 669.65 497.07" fill="#ffd238"/>
<polygon points="648.67 433.85 623.41 446.48 669.73 497" fill="#ffd238"/>
<polygon points="657 534.78 686.58 539.01 686.58 539.21 657 543.44" fill="#fdf3d3"/>
<polygon points="657.1 534.9 657.1 543.32 686.57 539.11" fill="#fdf3d3"/>
<polygon points="657 543.23 686.56 539.01 686.6 539.21 657 547.66" fill="#fffeff"/>
<polygon points="657.1 543.32 657.1 547.53 686.57 539.11" fill="#fffeff"/>
<polygon points="657 433.86 652.78 383.22 669.86 383.22 657.19 433.87" fill="#fed638"/>
<polygon points="652.89 383.32 657.1 433.85 669.73 383.32" fill="#fed638"/>
<polygon points="648.54 433.75 657.18 433.75 669.83 496.99 669.63 497.04" fill="#ffe339"/>
<polygon points="657.1 433.85 648.67 433.85 669.73 497" fill="#ffe339"/>
<polygon points="652.74 160.13 690.73 139.02 690.86 139.18 661.29 172.96" fill="#fff54d"/>
<polygon points="652.89 160.16 661.31 172.79 690.78 139.11" fill="#fff54d"/>
<polygon points="656.96 534.98 669.72 496.71 686.73 539.23" fill="#fdd040"/>
<polygon points="669.73 497 657.1 534.9 686.57 539.11" fill="#fdd040"/>
<polygon points="652.86 332.89 644.39 324.44 644.51 324.29 669.77 336.92 669.7 337.1" fill="#ffd53a"/>
<polygon points="644.46 324.37 652.89 332.8 669.73 337" fill="#ffd53a"/>
<polygon points="644.34 324.42 661.35 281.89 669.86 337.18" fill="#fec436"/>
<polygon points="661.31 282.27 644.46 324.37 669.73 337" fill="#fec436"/>
<polygon points="648.55 518.04 669.66 496.94 669.82 497.04 657.11 535.16" fill="#fdce3b"/>
<polygon points="648.67 518.06 657.1 534.9 669.73 497" fill="#fdce3b"/>
<polygon points="673.94 198.16 661.22 177.06 661.36 176.92 691.09 198.16" fill="#fef85d"/>
<polygon points="661.31 177 673.94 198.06 690.78 198.06" fill="#fef85d"/>
<polygon points="669.55 496.84 707.78 509.59 686.54 539.32" fill="#fffaed"/>
<polygon points="669.73 497 686.57 539.11 707.62 509.64" fill="#fffaed"/>
<polygon points="669.66 383.16 707.82 408.6 656.95 434.04" fill="#ffd238"/>
<polygon points="669.73 383.32 657.1 433.85 707.62 408.58" fill="#ffd238"/>
<polygon points="661.25 177.09 661.21 172.58 690.85 197.98 690.72 198.14" fill="#fff43b"/>
<polygon points="661.31 172.79 661.31 177 690.78 198.06" fill="#fff43b"/>
<polygon points="669.42 497.01 716.19 480 707.69 509.77" fill="#fde93b"/>
<polygon points="669.73 497 707.62 509.64 716.04 480.16" fill="#fde93b"/>
<polygon points="656.94 433.6 716.25 480.19 669.65 497.14" fill="#fee53a"/>
<polygon points="657.1 433.85 669.73 497 716.04 480.16" fill="#fee53a"/>
<polygon points="686.4 539.17 707.54 509.58 707.72 509.65 703.5 543.45" fill="#fef142"/>
<polygon points="686.57 539.11 703.41 543.32 707.62 509.64" fill="#fef142"/>
<polygon points="661.16 172.81 690.88 138.84 690.88 198.28" fill="#fff461"/>
<polygon points="661.31 172.79 690.78 198.06 690.78 139.11" fill="#fff461"/>
<polygon points="648.59 240.11 673.85 198.01 691.02 197.96 648.75 240.24" fill="#fefcd0"/>
<polygon points="673.94 198.06 648.67 240.16 690.78 198.06" fill="#fefcd0"/>
<polygon points="707.55 509.39 724.61 530.72 703.29 543.51" fill="#feea4e"/>
<polygon points="707.62 509.64 703.41 543.32 724.46 530.69" fill="#feea4e"/>
<polygon points="669.63 336.9 716.28 336.9 669.63 383.56" fill="#fddd37"/>
<polygon points="669.73 337 669.73 383.32 716.04 337" fill="#fddd37"/>
<polygon points="648.52 240.01 729.04 265.44 661.24 282.39" fill="#ffc939"/>
<polygon points="648.67 240.16 661.31 282.27 728.67 265.43" fill="#ffc939"/>
<polygon points="669.64 337.11 661.16 281.98 716.28 337.11" fill="#fdda39"/>
<polygon points="661.31 282.27 669.73 337 716.04 337" fill="#fdda39"/>
<polygon points="648.46 240.23 690.79 197.91 733.12 252.93" fill="#ffe13b"/>
<polygon points="690.78 198.06 648.67 240.16 732.89 252.79" fill="#ffe13b"/>
<polygon points="648.64 240.26 648.69 240.06 733.02 252.71 728.74 265.55" fill="#ffc338"/>
<polygon points="648.67 240.16 728.67 265.43 732.89 252.79" fill="#ffc338"/>
<polygon points="656.91 433.83 707.71 408.43 716.17 480.39" fill="#feec37"/>
<polygon points="707.62 408.58 657.1 433.85 716.04 480.16" fill="#feec37"/>
<polygon points="690.53 197.9 728.77 206.4 733.02 253.13" fill="#fff739"/>
<polygon points="728.67 206.48 690.78 198.06 732.89 252.79" fill="#fff739"/>
<polygon points="715.97 336.79 741.44 362.26 707.48 408.95" fill="#fcf43a"/>
<polygon points="716.04 337 707.62 408.58 741.31 362.27" fill="#fcf43a"/>
<polygon points="703.22 543.32 724.52 530.54 737.29 564.62" fill="#ffed5e"/>
<polygon points="724.46 530.69 703.41 543.32 737.1 564.37" fill="#ffed5e"/>
<polygon points="661.11 282.21 728.8 265.29 716.11 337.21" fill="#fedb3b"/>
<polygon points="661.31 282.27 716.04 337 728.67 265.43" fill="#fedb3b"/>
<polygon points="669.57 383.34 716.17 336.73 707.7 408.76" fill="#fde939"/>
<polygon points="669.73 383.32 707.62 408.58 716.04 337" fill="#fde939"/>
<polygon points="728.58 206.49 728.76 206.43 745.64 235.96 732.81 253.06" fill="#fff739"/>
<polygon points="728.67 206.48 732.89 252.79 745.52 235.95" fill="#fff739"/>
<polygon points="741.23 362.21 741.4 362.29 732.97 404.46 707.4 408.72" fill="#fff039"/>
<polygon points="707.62 408.58 732.89 404.37 741.31 362.27" fill="#fff039"/>
<polygon points="707.54 509.7 707.67 509.55 741.59 526.51 724.43 530.8" fill="#feeb3d"/>
<polygon points="707.62 509.64 724.46 530.69 741.31 526.48" fill="#feeb3d"/>
<polygon points="707.49 408.33 749.87 446.48 715.97 480.38" fill="#ffea38"/>
<polygon points="707.62 408.58 716.04 480.16 749.73 446.48" fill="#ffea38"/>
<polygon points="707.4 408.52 732.95 404.26 749.82 446.44 749.66 446.55" fill="#fdf239"/>
<polygon points="732.89 404.37 707.62 408.58 749.73 446.48" fill="#fdf239"/>
<polygon points="715.73 336.83 754.11 345.36 741.32 362.42" fill="#fef839"/>
<polygon points="716.04 337 741.31 362.27 753.94 345.43" fill="#fef839"/>
<polygon points="728.62 265.15 754.07 307.56 715.9 337.24" fill="#fef638"/>
<polygon points="728.67 265.43 716.04 337 753.94 307.53" fill="#fef638"/>
<polygon points="724.33 530.62 741.42 526.35 737.19 564.38 737 564.41" fill="#feeb57"/>
<polygon points="724.46 530.69 737.1 564.37 741.31 526.48" fill="#feeb57"/>
<polygon points="690.68 198.14 690.68 138.73 728.87 206.63" fill="#fcfc3d"/>
<polygon points="690.78 139.11 690.78 198.06 728.67 206.48" fill="#fcfc3d"/>
<polygon points="753.97 345.21 758.28 358.13 741.06 362.43" fill="#fff039"/>
<polygon points="753.94 345.43 741.31 362.27 758.15 358.06" fill="#fff039"/>
<polygon points="715.85 480.02 758.29 488.51 741.31 526.71" fill="#fefd38"/>
<polygon points="716.04 480.16 741.31 526.48 758.15 488.58" fill="#fefd38"/>
<polygon points="690.69 139.16 690.84 139.03 754.11 189.65 728.64 206.62" fill="#fdfd3e"/>
<polygon points="690.78 139.11 728.67 206.48 753.94 189.64" fill="#fdfd3e"/>
<polygon points="707.5 509.69 716.01 479.9 741.55 526.71" fill="#fefa38"/>
<polygon points="716.04 480.16 707.62 509.64 741.31 526.48" fill="#fefa38"/>
<polygon points="745.5 235.81 762.61 248.65 732.66 252.93" fill="#fff83a"/>
<polygon points="745.52 235.95 732.89 252.79 762.36 248.58" fill="#fff83a"/>
<polygon points="745.22 235.85 749.73 235.85 762.43 248.51 762.3 248.66" fill="#fff739"/>
<polygon points="749.73 235.95 745.52 235.95 762.36 248.58" fill="#fff739"/>
<polygon points="715.84 480.23 749.79 446.28 758.27 488.71" fill="#fffe39"/>
<polygon points="749.73 446.48 716.04 480.16 758.15 488.58" fill="#fffe39"/>
<polygon points="715.81 337.06 754.04 307.33 754.04 345.55" fill="#fdf038"/>
<polygon points="753.94 307.53 716.04 337 753.94 345.43" fill="#fdf038"/>
<polygon points="732.71 404.2 766.72 416.95 749.71 446.71" fill="#ffe439"/>
<polygon points="732.89 404.37 749.73 446.48 766.57 417" fill="#ffe439"/>
<polygon points="741.24 362.07 766.74 387.56 732.75 404.56" fill="#fff039"/>
<polygon points="741.31 362.27 732.89 404.37 766.57 387.53" fill="#fff039"/>
<polygon points="745.46 236.05 728.59 206.53 728.76 206.42 749.92 236.05" fill="#fff739"/>
<polygon points="728.67 206.48 745.52 235.95 749.73 235.95" fill="#fff739"/>
<polygon points="728.48 206.38 770.98 206.38 749.73 236.13" fill="#fff53a"/>
<polygon points="728.67 206.48 749.73 235.95 770.78 206.48" fill="#fff53a"/>
<polygon points="728.35 206.58 753.95 189.51 771.02 206.58" fill="#fef740"/>
<polygon points="753.94 189.64 728.67 206.48 770.78 206.48" fill="#fef740"/>
<polygon points="728.46 265.26 770.93 278 753.94 307.73" fill="#fff135"/>
<polygon points="728.67 265.43 753.94 307.53 770.78 278.06" fill="#fff135"/>
<polygon points="728.4 265.45 762.42 248.44 770.93 278.21" fill="#fef33a"/>
<polygon points="762.36 248.58 728.67 265.43 770.78 278.06" fill="#fef33a"/>
<polygon points="732.64 404.39 766.67 387.37 766.67 417.15" fill="#fdfe38"/>
<polygon points="766.57 387.53 732.89 404.37 766.57 417" fill="#fdfe38"/>
<polygon points="741.11 362.21 758.22 357.94 766.77 387.88" fill="#fff039"/>
<polygon points="758.15 358.06 741.31 362.27 766.57 387.53" fill="#fff039"/>
<polygon points="732.81 252.71 762.35 248.49 762.4 248.67 728.5 265.62" fill="#fef83b"/>
<polygon points="732.89 252.79 728.67 265.43 762.36 248.58" fill="#fef83b"/>
<polygon points="766.47 417 766.47 387.2 775.1 400.16 766.66 417.05" fill="#fef63a"/>
<polygon points="766.57 387.53 766.57 417 774.99 400.16" fill="#fef63a"/>
<polygon points="753.87 189.71 753.97 189.54 779.39 198.01 770.78 206.62" fill="#fff83a"/>
<polygon points="753.94 189.64 770.78 206.48 779.2 198.06" fill="#fff83a"/>
<polygon points="758.01 357.93 779.35 362.2 766.54 387.81" fill="#fdf239"/>
<polygon points="758.15 358.06 766.57 387.53 779.2 362.27" fill="#fdf239"/>
<polygon points="749.64 446.43 766.53 416.87 775.16 421.19 749.8 446.55" fill="#ffe239"/>
<polygon points="766.57 417 749.73 446.48 774.99 421.22" fill="#ffe239"/>
<polygon points="753.91 189.73 753.95 189.54 783.62 193.78 779.23 198.17" fill="#fff739"/>
<polygon points="753.94 189.64 779.2 198.06 783.41 193.85" fill="#fff739"/>
<polygon points="741.22 526.35 783.67 539.08 736.98 564.55" fill="#fdf7ba"/>
<polygon points="741.31 526.48 737.1 564.37 783.41 539.11" fill="#fdf7ba"/>
<polygon points="753.84 307.36 783.6 324.37 753.84 345.62" fill="#f6fe38"/>
<polygon points="753.94 307.53 753.94 345.43 783.41 324.37" fill="#f6fe38"/>
<polygon points="766.44 417.05 774.9 400.12 775.09 400.16 775.09 421.38" fill="#feea3c"/>
<polygon points="774.99 400.16 766.57 417 774.99 421.22" fill="#feea3c"/>
<polygon points="758.07 358.14 753.75 345.18 779.26 362.19 779.18 362.37" fill="#fdf038"/>
<polygon points="753.94 345.43 758.15 358.06 779.2 362.27" fill="#fdf038"/>
<polygon points="770.76 277.89 792.03 299.17 753.74 307.68" fill="#fff739"/>
<polygon points="770.78 278.06 753.94 307.53 791.83 299.11" fill="#fff739"/>
<polygon points="753.66 307.49 791.98 298.98 783.47 324.52" fill="#f5f738"/>
<polygon points="753.94 307.53 783.41 324.37 791.83 299.11" fill="#f5f738"/>
<polygon points="762.23 248.5 787.8 244.24 770.75 278.33" fill="#fff43b"/>
<polygon points="762.36 248.58 770.78 278.06 787.62 244.37" fill="#fff43b"/>
<polygon points="770.74 206.15 787.77 244.45 762.23 248.71" fill="#fff739"/>
<polygon points="770.78 206.48 762.36 248.58 787.62 244.37" fill="#fff739"/>
<polygon points="741.17 526.54 758.14 488.35 783.6 539.27" fill="#fefd38"/>
<polygon points="758.15 488.58 741.31 526.48 783.41 539.11" fill="#fefd38"/>
<polygon points="753.76 345.43 783.53 324.16 779.28 362.44" fill="#f7ff39"/>
<polygon points="753.94 345.43 779.2 362.27 783.41 324.37" fill="#f7ff39"/>
<polygon points="749.6 235.96 770.7 206.42 770.88 206.5 762.42 248.79" fill="#fff739"/>
<polygon points="749.73 235.95 762.36 248.58 770.78 206.48" fill="#fff739"/>
<polygon points="783.32 324.34 791.74 299.08 800.47 296.41 783.5 324.43" fill="#f9fe39"/>
<polygon points="791.83 299.11 783.41 324.37 800.25 296.58" fill="#f9fe39"/>
<polygon points="770.71 278.13 770.83 277.97 800.49 296.62 791.8 299.22" fill="#fef73e"/>
<polygon points="770.78 278.06 791.83 299.11 800.25 296.58" fill="#fef73e"/>
<polygon points="770.65 278.1 787.65 244.08 800.41 296.8" fill="#fff93a"/>
<polygon points="787.62 244.37 770.78 278.06 800.25 296.58" fill="#fff93a"/>
<polygon points="779.17 362.11 800.47 380.85 766.39 387.67" fill="#f9f739"/>
<polygon points="779.2 362.27 766.57 387.53 800.25 380.8" fill="#f9f739"/>
<polygon points="766.4 387.46 800.23 380.7 800.31 380.88 774.97 400.31" fill="#fff23a"/>
<polygon points="766.57 387.53 774.99 400.16 800.25 380.8" fill="#fff23a"/>
<polygon points="774.89 400.16 800.19 380.72 800.34 380.85 774.89 421.56" fill="#fef33a"/>
<polygon points="774.99 400.16 774.99 421.22 800.25 380.8" fill="#fef33a"/>
<polygon points="783.32 324.4 800.35 296.23 800.35 380.8 800.16 380.82" fill="#f6fe38"/>
<polygon points="800.25 296.58 783.41 324.37 800.25 380.8" fill="#f6fe38"/>
<polygon points="779.13 362.34 783.31 324.36 783.51 324.35 800.45 381.1" fill="#f6ff39"/>
<polygon points="783.41 324.37 779.2 362.27 800.25 380.8" fill="#f6ff39"/>
<polygon points="749.54 446.52 775.01 421.05 800.48 464.35" fill="#ffe63a"/>
<polygon points="774.99 421.22 749.73 446.48 800.25 464.16" fill="#ffe63a"/>
<polygon points="749.6 446.33 800.49 464.14 758.08 488.74" fill="#fdf239"/>
<polygon points="749.73 446.48 758.15 488.58 800.25 464.16" fill="#fdf239"/>
<polygon points="783.3 539.16 800.15 464.14 800.35 464.16 800.35 548.54" fill="#fff23a"/>
<polygon points="783.41 539.11 800.25 548.37 800.25 464.16" fill="#fff23a"/>
<polygon points="758.02 488.55 800.4 463.96 783.45 539.41" fill="#fff23a"/>
<polygon points="758.15 488.58 783.41 539.11 800.25 464.16" fill="#fff23a"/>
<polygon points="774.87 421.21 800.35 380.45 800.35 464.53" fill="#ffe43a"/>
<polygon points="800.25 380.8 774.99 421.22 800.25 464.16" fill="#ffe43a"/>
<polygon points="770.61 206.34 800.39 213.15 787.63 244.63" fill="#fff739"/>
<polygon points="770.78 206.48 787.62 244.37 800.25 213.22" fill="#fff739"/>
<polygon points="770.58 206.54 779.19 197.93 800.31 213.13 800.23 213.31" fill="#fff739"/>
<polygon points="779.2 198.06 770.78 206.48 800.25 213.22" fill="#fff739"/>
<polygon points="779.05 198.07 783.42 193.7 800.33 213.15 800.19 213.3" fill="#fff739"/>
<polygon points="783.41 193.85 779.2 198.06 800.25 213.22" fill="#fff739"/>
<polygon points="783.34 193.91 800.16 128.98 800.35 129 800.35 213.48" fill="#fefb73"/>
<polygon points="800.25 129 783.41 193.85 800.25 213.22" fill="#fefb73"/>
<polygon points="787.52 244.4 800.16 213.18 800.35 213.22 800.35 296.58 800.15 296.61" fill="#fbfb76"/>
<polygon points="787.62 244.37 800.25 296.58 800.25 213.22" fill="#fbfb76"/>
</svg>
